SplineFontDB: 3.0
FontName: StickNoBills-Bold
FullName: Stick No Bills
FamilyName: Stick No Bills
Weight: Bold
Copyright: Copyright (c) 2013 STICK NO BILLS, Copyright (c) 2015 mooniak\n
UComments: "2015-2-15: Created with FontForge (http://fontforge.org) The  Free Font Editor"
Version: 1.0
ItalicAngle: 0
UnderlinePosition: -102
UnderlineWidth: 51
Ascent: 819
Descent: 205
InvalidEm: 0
UFOAscent: 819
UFODescent: -205
LayerCount: 2
Layer: 0 0 "Back" 1
Layer: 1 0 "Fore" 0
PreferredKerning: 4
FSType: 0
OS2Version: 0
OS2_WeightWidthSlopeOnly: 0
OS2_UseTypoMetrics: 0
CreationTime: 1429518268
ModificationTime: 1445597906
PfmFamily: 16
TTFWeight: 400
TTFWidth: 5
LineGap: 94
VLineGap: 0
OS2TypoAscent: 819
OS2TypoAOffset: 0
OS2TypoDescent: -205
OS2TypoDOffset: 0
OS2TypoLinegap: 94
OS2WinAscent: 918
OS2WinAOffset: 0
OS2WinDescent: 205
OS2WinDOffset: 0
HheadAscent: 918
HheadAOffset: 0
HheadDescent: -205
HheadDOffset: 0
OS2CapHeight: 0
OS2XHeight: 0
OS2Vendor: 'PfEd'
OS2UnicodeRanges: 00000002.00000000.00000000.00000000
Lookup: 258 0 0 "'kern' Horizontal Kerning lookup 0" { "'kern' Horizontal Kerning lookup 0-1" [153,15,0] } ['kern' ('DFLT' <'dflt' > 'hani' <'dflt' > 'latn' <'dflt' > ) ]
MarkAttachClasses: 1
DEI: 91125
KernClass2: 7 7 "'kern' Horizontal Kerning lookup 0-1"
 1 A
 7 T Y P F
 9 f r v w y
 1 L
 3 W V
 0 
 7 W V T Y
 12 period comma
 17 a e s o q d c g u
 1 A
 5 w v t
 15 semicolon colon
 0 {} 0 {} 0 {} 0 {} 0 {} 0 {} 0 {} 0 {} -70 {} 61 {} -23 {} 0 {} -68 {} 45 {} 0 {} 16 {} -80 {} -30 {} -100 {} -23 {} -63 {} 0 {} 0 {} -41 {} 0 {} 0 {} 0 {} 0 {} 0 {} -82 {} 0 {} 84 {} 0 {} -77 {} 62 {} 0 {} 0 {} -109 {} -55 {} -130 {} 0 {} -75 {} 0 {} 0 {} 0 {} 0 {} 0 {} 0 {} 0 {}

StartChar: A
Encoding: 65 65 0
GlifName: A_
Width: 528
VWidth: 0
GlyphClass: 2
Flags: HMW
LayerCount: 2
Back
Fore
SplineSet
32 0 m 257
 161 582 l 257
 176 582 l 257
 236 302 l 257
 170 0 l 257
 32 0 l 257
245 85 m 257
 275 223 l 257
 311 223 l 257
 205 700 l 261
 344 700 l 261
 499 0 l 257
 359 0 l 257
 339 85 l 257
 245 85 l 257
EndSplineSet
EndChar

StartChar: AE
Encoding: 256 198 1
GlifName: A_E_
Width: 727
VWidth: 0
GlyphClass: 2
Flags: MW
LayerCount: 2
Back
Fore
SplineSet
26 0 m 257
 206 700 l 257
 701 700 l 257
 701 560 l 257
 478 560 l 257
 478 418 l 257
 607 418 l 257
 607 277 l 257
 478 277 l 257
 478 141 l 257
 701 141 l 257
 701 0 l 257
 337 0 l 257
 337 148 l 257
 272 148 l 257
 301 268 l 257
 337 268 l 257
 337 560 l 257
 320 560 l 257
 182 0 l 257
 26 0 l 257
EndSplineSet
EndChar

StartChar: Aring
Encoding: 257 197 6
GlifName: A_ring
Width: 516
VWidth: 0
GlyphClass: 2
Flags: MW
LayerCount: 2
Back
Fore
SplineSet
26 0 m 257
 155 582 l 257
 170 582 l 257
 230 302 l 257
 164 0 l 257
 26 0 l 257
239 85 m 261
 269 223 l 257
 305 223 l 257
 200 698 l 257
 183 715 173 739 173 765 c 256
 173 818 216 861 269 861 c 256
 322 861 365 818 365 765 c 256
 365 738.676078009 355.629770284 715.629770284 339 699 c 257
 490 0 l 257
 353 0 l 257
 333 85 l 257
 239 85 l 261
237 765 m 256
 237 747 251 733 269 733 c 256
 287 733 301 747 301 765 c 256
 301 783 287 797 269 797 c 256
 251 797 237 783 237 765 c 256
EndSplineSet
EndChar

StartChar: B
Encoding: 66 66 8
GlifName: B_
Width: 488
VWidth: 0
GlyphClass: 2
Flags: HMW
LayerCount: 2
Back
Fore
SplineSet
30 0 m 257
 30 700 l 257
 170 700 l 257
 170 0 l 257
 30 0 l 257
225 411 m 257
 233 411 l 2
 288.309570312 411 316.5078125 452.302734375 316.5078125 493.703125 c 0
 316.5078125 535.301757812 288.0390625 577 230 577 c 2
 225 577 l 257
 225 700 l 257
 249 700 l 258
 394.868164062 700 457.42578125 600.41796875 457.42578125 504.029296875 c 0
 457.42578125 443.702148438 432.920898438 382.626953125 389 350 c 257
 432.920898438 317.373046875 457.42578125 256.297851562 457.42578125 195.970703125 c 0
 457.42578125 99.58203125 394.868164062 0 249 0 c 258
 225 0 l 257
 225 123 l 257
 230 123 l 2
 288.0390625 123 316.5078125 164.698242188 316.5078125 206.296875 c 0
 316.5078125 247.697265625 288.309570312 289 233 289 c 2
 225 289 l 257
 225 411 l 257
EndSplineSet
EndChar

StartChar: C
Encoding: 67 67 9
GlifName: C_
Width: 494
VWidth: 0
GlyphClass: 2
Flags: MW
LayerCount: 2
Back
Fore
SplineSet
38 181 m 257
 38 518 l 257
 38 578 92 705 235 705 c 257
 235 564 l 257
 189 563 179 523 179 518 c 257
 179 181 l 257
 179 176 189 136 235 136 c 257
 235 -5 l 257
 92 -5 38 121 38 181 c 257
289 -5 m 257
 289 136 l 257
 289 136 321 143 331 166 c 256
 336 178 336 189 336 203 c 258
 336 215 l 257
 474 182 l 257
 474 76 381 -5 289 -5 c 257
289 564 m 257
 289 705 l 257
 381 705 474 612 474 516 c 257
 336 480 l 257
 336 495 l 258
 336 509 336 520 331 532 c 256
 321 555 289 564 289 564 c 257
EndSplineSet
EndChar

StartChar: D
Encoding: 68 68 11
GlifName: D_
Width: 472
VWidth: 0
GlyphClass: 2
Flags: MW
LayerCount: 2
Back
Fore
SplineSet
42 0 m 257
 42 700 l 257
 183 700 l 257
 183 0 l 257
 42 0 l 257
237 0 m 257
 237 141 l 257
 243 141 292 149 293 197 c 258
 293 503 l 257
 293 508 285 558 237 559 c 257
 237 700 l 257
 380 700 434 566 434 503 c 257
 434 197 l 257
 434 50 297 0 237 0 c 257
EndSplineSet
EndChar

StartChar: E
Encoding: 69 69 12
GlifName: E_
Width: 444
VWidth: 0
GlyphClass: 2
Flags: MW
LayerCount: 2
Back
Fore
SplineSet
42 0 m 257
 42 700 l 257
 406 700 l 257
 406 560 l 257
 183 560 l 257
 183 418 l 257
 312 418 l 257
 312 277 l 257
 183 277 l 257
 183 141 l 257
 406 141 l 257
 406 0 l 257
 42 0 l 257
EndSplineSet
EndChar

StartChar: Euro
Encoding: 259 8364 13
GlifName: E_U_R_O_
Width: 567
VWidth: 0
GlyphClass: 2
Flags: MW
LayerCount: 2
Back
Fore
SplineSet
50 258 m 257
 50 317 l 257
 99 317 l 257
 99 377 l 257
 50 377 l 257
 50 436 l 257
 99 436 l 257
 99 496 l 258
 99 604.698873363 182.17616375 694.858234877 278 698 c 257
 278 558 l 257
 250 558 236 539.428571429 236 508 c 258
 236 436 l 257
 408 436 l 257
 408 376 l 257
 236 376 l 257
 236 317 l 257
 408 317 l 257
 408 258 l 257
 236 258 l 257
 236 202 l 258
 236 155 254 141 278 141 c 257
 278 2 l 257
 177.199000496 9.46674070401 104.604778538 89.5211541299 99 182 c 257
 99 258 l 257
 50 258 l 257
338 2 m 257
 338 142 l 257
 366.666666667 143 381 165 381 199 c 258
 381 237 l 257
 517 186 l 257
 517 102.788325825 426.527213065 3.80667781764 338 2 c 257
338 558 m 257
 338 698 l 257
 446.58337431 696.192176034 517 617.39883305 517 514 c 257
 380 463 l 257
 381 512 l 258
 381 539.438596491 366 558 338 558 c 257
EndSplineSet
EndChar

StartChar: Eth
Encoding: 260 208 18
GlifName: E_th
Width: 501
VWidth: 0
GlyphClass: 2
Flags: MW
LayerCount: 2
Back
Fore
SplineSet
26 292 m 257
 26 420 l 257
 83 420 l 257
 83 700 l 257
 224 700 l 257
 224 420 l 257
 280 420 l 257
 280 292 l 257
 224 292 l 257
 224 0 l 257
 83 0 l 257
 83 292 l 257
 26 292 l 257
278 0 m 257
 278 141 l 257
 284 141 333 149 334 197 c 258
 334 503 l 258
 334 508 326 558 278 559 c 257
 278 700 l 257
 421 700 475 566 475 503 c 258
 475 197 l 258
 475 50 338 0 278 0 c 257
EndSplineSet
EndChar

StartChar: F
Encoding: 70 70 19
GlifName: F_
Width: 432
VWidth: 0
GlyphClass: 2
Flags: MW
LayerCount: 2
Back
Fore
SplineSet
42 1 m 257
 42 700 l 257
 406 700 l 257
 406 560 l 257
 183 560 l 257
 183 418 l 257
 312 418 l 257
 312 277 l 257
 183 277 l 257
 183 1 l 257
 42 1 l 257
EndSplineSet
EndChar

StartChar: G
Encoding: 71 71 20
GlifName: G_
Width: 507
VWidth: 0
GlyphClass: 2
Flags: MW
LayerCount: 2
Back
SplineSet
288 564 m 261xf0
 288 705 l 261xf0
 381 705 473 612 473 516 c 261xe8
 335 465 l 261
 335 495 l 262
 335 509 335 520 330 532 c 260
 320 555 288 564 288 564 c 261xf0
EndSplineSet
Fore
SplineSet
38 192 m 257
 38 524 l 257
 46 589 102 705 234 705 c 257
 234 564 l 257
 188 563 178 523 179 508 c 257
 179 192 l 258
 180 146 229 136 234 136 c 257
 234 -5 l 257
 174 -5 38 48 38 192 c 257
288 -5 m 257
 288 136 l 257
 294 136 331 155 331 190 c 258
 331 223 l 257
 288 223 l 257
 288 353 l 257
 473 353 l 257
 473 176 l 258
 473 95 370 -4 288 -5 c 257
288 564 m 261
 288 705 l 257
 381 705 473 612 473 516 c 257
 335 465 l 257
 335 504 l 258
 335 544.805225134 310.36453282 563.31923446 288 564 c 261
EndSplineSet
EndChar

StartChar: H
Encoding: 72 72 21
GlifName: H_
Width: 495
VWidth: 0
GlyphClass: 2
Flags: MW
LayerCount: 2
Back
Fore
SplineSet
40 0 m 257
 40 700 l 257
 181 700 l 257
 181 421 l 257
 220 421 l 257
 220 283 l 257
 181 283 l 257
 181 0 l 257
 40 0 l 257
275 283 m 257
 275 421 l 257
 314 421 l 257
 314 700 l 257
 455 700 l 257
 455 0 l 257
 314 0 l 257
 314 283 l 257
 275 283 l 257
EndSplineSet
EndChar

StartChar: uni5713
Encoding: 261 22291 22
GlifName: H_K_D_
Width: 843
VWidth: 0
GlyphClass: 2
Flags: MW
LayerCount: 2
Back
Fore
SplineSet
50 488 m 257
 50 698 l 257
 92 698 l 257
 92 614 l 257
 101 614 l 257
 101 573 l 257
 92 573 l 257
 92 488 l 257
 50 488 l 257
117 573 m 257
 117 614 l 257
 126 614 l 257
 126 698 l 257
 169 698 l 257
 169 488 l 257
 126 488 l 257
 126 573 l 257
 117 573 l 257
198 488 m 257
 198 698 l 257
 241 698 l 257
 241 488 l 257
 198 488 l 257
257 611 m 257
 283 698 l 257
 325 698 l 257
 299 611 l 257
 326 488 l 257
 284 488 l 257
 257 611 l 257
EndSplineSet
Refer: 105 36 N 1 0 0 1 322 0 2
EndChar

StartChar: I
Encoding: 73 73 23
GlifName: I_
Width: 225
VWidth: 0
GlyphClass: 2
Flags: MW
LayerCount: 2
Back
Fore
SplineSet
42 0 m 257
 42 700 l 257
 183 700 l 257
 183 0 l 257
 42 0 l 257
EndSplineSet
EndChar

StartChar: J
Encoding: 74 74 28
GlifName: J_
Width: 484
VWidth: 0
GlyphClass: 2
Flags: MW
LayerCount: 2
Back
Fore
SplineSet
15 193 m 257
 15 242 l 257
 156 242 l 257
 156 193 l 258
 157 147 197 137 202 137 c 257
 202 -5 l 257
 142 -5 15 54 15 193 c 257
256 -5 m 257
 256 137 l 257
 261 137 311 147 312 193 c 258
 312 700 l 257
 452 700 l 257
 452 193 l 257
 452 49 316 -5 256 -5 c 257
EndSplineSet
EndChar

StartChar: K
Encoding: 75 75 29
GlifName: K_
Width: 488
VWidth: 0
GlyphClass: 2
Flags: MW
LayerCount: 2
Back
Fore
SplineSet
42 0 m 257
 42 700 l 257
 183 700 l 257
 183 0 l 257
 42 0 l 257
223 341 m 257
 330 700 l 257
 469 700 l 257
 363 341 l 257
 473 0 l 257
 335 0 l 257
 223 341 l 257
EndSplineSet
EndChar

StartChar: L
Encoding: 76 76 30
GlifName: L_
Width: 433
VWidth: 0
GlyphClass: 2
Flags: MW
LayerCount: 2
Back
Fore
SplineSet
42 0 m 257
 42 700 l 257
 183 700 l 257
 183 140 l 261
 418 140 l 261
 418 0 l 257
 42 0 l 257
EndSplineSet
EndChar

StartChar: Lslash
Encoding: 262 321 31
GlifName: L_slash
Width: 530
VWidth: 0
GlyphClass: 2
Flags: MW
LayerCount: 2
Back
Fore
SplineSet
26 302 m 257
 129 382 l 257
 129 700 l 257
 270 700 l 257
 270 492 l 257
 348 553 l 257
 420 460 l 257
 270 343 l 257
 270 139 l 257
 505 139 l 257
 505 0 l 257
 129 0 l 257
 129 233 l 257
 98 209 l 257
 26 302 l 257
EndSplineSet
EndChar

StartChar: M
Encoding: 77 77 32
GlifName: M_
Width: 696
VWidth: 0
GlyphClass: 2
Flags: MW
LayerCount: 2
Back
Fore
SplineSet
42 0 m 257
 42 444 l 257
 51 444 l 257
 183 127 l 257
 183 0 l 257
 42 0 l 257
42 608 m 257
 42 700 l 257
 152 700 l 257
 343 237 l 257
 449 476 l 257
 459 476 l 257
 459 151 l 257
 392 0 l 257
 295 0 l 257
 42 608 l 257
513 0 m 257
 513 700 l 257
 654 700 l 257
 654 0 l 257
 513 0 l 257
EndSplineSet
EndChar

StartChar: N
Encoding: 78 78 33
GlifName: N_
Width: 529
VWidth: 0
GlyphClass: 2
Flags: MW
LayerCount: 2
Back
Fore
SplineSet
42 0 m 257
 42 492 l 257
 50 492 l 257
 183 278 l 257
 183 0 l 257
 42 0 l 257
42 608 m 257
 42 700 l 257
 157 700 l 257
 487 168 l 257
 487 0 l 257
 420 0 l 257
 42 608 l 257
346 498 m 257
 346 700 l 257
 487 700 l 257
 487 284 l 257
 479 284 l 257
 346 498 l 257
EndSplineSet
EndChar

StartChar: O
Encoding: 79 79 35
GlifName: O_
Width: 524
VWidth: 0
GlyphClass: 2
Flags: MW
LayerCount: 2
Back
Fore
SplineSet
38 195 m 258
 38 524 l 258
 38 584 103 705 235 705 c 257
 235 564 l 257
 189 563 179 513 179 508 c 258
 179 195 l 258
 179 149 229 137 234 137 c 257
 234 -5 l 257
 174 -5 38 51 38 195 c 258
289 -5 m 257
 289 137 l 257
 294 137 344 149 345 195 c 258
 345 508 l 258
 345 513 335 563 289 564 c 257
 289 705 l 257
 420 705 486 583 486 524 c 258
 486 195 l 258
 486 51 349 -5 289 -5 c 257
EndSplineSet
EndChar

StartChar: OE
Encoding: 263 338 36
GlifName: O_E_
Width: 724
VWidth: 0
GlyphClass: 2
Flags: MW
LayerCount: 2
Back
Fore
SplineSet
26 200 m 258
 26 519 l 258
 26 579 91 700 223 700 c 257
 223 559 l 257
 177 558 167 508 167 503 c 258
 167 200 l 258
 167 154 217 142 222 142 c 257
 222 0 l 257
 162 0 26 56 26 200 c 258
277 0 m 257
 277 142 l 257
 334 142 l 257
 334 559 l 257
 277 559 l 257
 277 700 l 257
 698 700 l 257
 698 560 l 257
 475 560 l 257
 475 418 l 257
 604 418 l 257
 604 277 l 257
 475 277 l 257
 475 141 l 257
 698 141 l 257
 698 0 l 257
 277 0 l 257
EndSplineSet
EndChar

StartChar: Oslash
Encoding: 264 216 41
GlifName: O_slash
Width: 662
VWidth: 0
GlyphClass: 2
Flags: MW
LayerCount: 2
Back
Fore
SplineSet
0 131 m 257
 108 228 l 257
 108 524 l 258
 108 584 173 705 305 705 c 257
 305 564 l 257
 259 562.892857143 249 519.714285714 249 502 c 262
 249 356 l 257
 415 505 l 257
 415 522.577314707 406.62938282 562.964578634 359 564 c 257
 359 705 l 257
 441 705 497 658 528 607 c 257
 584 658 l 257
 662 570 l 257
 556 474 l 257
 556 195 l 258
 556 51 419 -5 359 -5 c 257
 359 137 l 257
 364 137 414 149 415 195 c 258
 415 347 l 257
 249 197 l 257
 249 149.828680689 297.576652872 137 304 137 c 257
 304 -5 l 257
 261 -5 178 24 135 94 c 257
 78 43 l 257
 0 131 l 257
EndSplineSet
EndChar

StartChar: P
Encoding: 80 80 43
GlifName: P_
Width: 479
VWidth: 0
GlyphClass: 2
Flags: MW
LayerCount: 2
Back
Fore
SplineSet
42 0 m 257
 42 700 l 257
 183 700 l 257
 183 0 l 257
 42 0 l 257
237 318 m 257
 237 457 l 257
 270 457 l 258
 277 457 321 458 321 508 c 256
 321 559 279 561 270 561 c 258
 237 561 l 257
 237 700 l 257
 418 700 464 626 464 512 c 256
 464 369 394 318 237 318 c 257
EndSplineSet
EndChar

StartChar: percent
Encoding: 37 37 44
GlifName: P_ercent_sign
Width: 629
VWidth: 0
GlyphClass: 2
Flags: MW
LayerCount: 2
Back
Fore
SplineSet
26 575 m 256
 26 635 74 683 134 683 c 256
 194 683 242 635 242 575 c 256
 242 515 194 467 134 467 c 256
 74 467 26 515 26 575 c 256
160 -23 m 257
 335 716 l 257
 461 716 l 257
 287 -23 l 257
 160 -23 l 257
387 117 m 256
 387 177 435 225 495 225 c 256
 555 225 603 177 603 117 c 256
 603 57 555 9 495 9 c 256
 435 9 387 57 387 117 c 256
EndSplineSet
Validated: 1
EndChar

StartChar: Q
Encoding: 81 81 45
GlifName: Q_
Width: 526
VWidth: 0
GlyphClass: 2
Flags: MW
LayerCount: 2
Back
Fore
SplineSet
38 195 m 258
 38 524 l 258
 38 584 103 705 235 705 c 257
 235 564 l 257
 189 563 179 513 179 508 c 258
 179 195 l 258
 179 149 229 137 234 137 c 257
 234 -5 l 257
 174 -5 38 51 38 195 c 258
289 -5 m 257
 289 137 l 257
 294 137 344 149 345 195 c 258
 345 508 l 258
 345 513 335 563 289 564 c 257
 289 705 l 257
 420 705 486 583 486 524 c 258
 486 195 l 258
 486 127 456 79 417 47 c 257
 472 -32 l 257
 360 -107 l 257
 289 -5 l 257
EndSplineSet
EndChar

StartChar: R
Encoding: 82 82 46
GlifName: R_
Width: 505
VWidth: 0
GlyphClass: 2
Flags: MW
LayerCount: 2
Back
Fore
SplineSet
42 0 m 257
 42 700 l 257
 183 700 l 257
 183 0 l 257
 42 0 l 257
237 286 m 257
 237 411 l 257
 250 411 l 258
 310 411 336 450 336 490 c 256
 336 538 299 567 250 567 c 258
 237 567 l 257
 237 700 l 257
 387 700 463 610 463 490 c 256
 463 422 443 381 400 352 c 257
 441 326 462 266 466 217 c 258
 483 0 l 257
 353 0 l 257
 338 178 l 258
 331 257 308 286 237 286 c 257
EndSplineSet
EndChar

StartChar: S
Encoding: 83 83 47
GlifName: S_
Width: 481
VWidth: 0
GlyphClass: 2
Flags: MW
LayerCount: 2
Back
Fore
SplineSet
20 158 m 261
 147 203 l 261
 147 147 203 127 203 127 c 257
 203 -3 l 257
 94 -3 20 103 20 158 c 261
28 508 m 256
 28 647 152 699 203 700 c 257
 203 568 l 257
 182 562 162 537 162 513 c 256
 162 446 266 434 333 394 c 256
 394 358 461 311 461 209 c 256
 461 96 366 -3 258 -3 c 257
 258 127 l 257
 282 130 320 150 320 203 c 256
 320 278 211 294 151 323 c 256
 80 357 28 403 28 508 c 256
258 568 m 257
 258 700 l 257
 364 700 433 602 433 553 c 261
 303 510 l 261
 303 557 258 568 258 568 c 257
EndSplineSet
EndChar

StartChar: T
Encoding: 84 84 49
GlifName: T_
Width: 463
VWidth: 0
GlyphClass: 2
Flags: MW
LayerCount: 2
Back
Fore
SplineSet
15 562 m 257
 15 700 l 257
 448 700 l 257
 448 562 l 257
 302 562 l 257
 302 0 l 257
 161 0 l 257
 161 562 l 257
 15 562 l 257
EndSplineSet
EndChar

StartChar: Thorn
Encoding: 267 222 50
GlifName: T_horn
Width: 474
VWidth: 0
GlyphClass: 2
Flags: MW
LayerCount: 2
Back
Fore
SplineSet
26 0 m 257
 26 700 l 257
 167 700 l 257
 167 0 l 257
 26 0 l 257
221 208 m 257
 221 347 l 257
 254 347 l 258
 261 347 305 348 305 398 c 256
 305 449 263 451 254 451 c 258
 221 451 l 257
 221 590 l 257
 402 590 448 516 448 402 c 256
 448 259 378 208 221 208 c 257
EndSplineSet
EndChar

StartChar: trademark
Encoding: 268 8482 51
GlifName: T_radeM_arkS_ign
Width: 403
VWidth: 0
GlyphClass: 2
Flags: HMW
LayerCount: 2
Back
Fore
SplineSet
26 653 m 257
 26 700 l 257
 165 700 l 257
 165 653 l 257
 120 653 l 257
 120 484 l 257
 72 484 l 257
 72 653 l 257
 26 653 l 257
188 484 m 257
 188 627 l 257
 191 627 l 257
 236 519 l 257
 236 484 l 257
 188 484 l 257
188 669 m 257
 188 700 l 257
 225 700 l 257
 281 564 l 257
 313 636 l 257
 317 636 l 257
 317 529 l 257
 298 484 l 257
 265 484 l 257
 188 669 l 257
330 484 m 257
 330 700 l 257
 377 700 l 257
 377 484 l 257
 330 484 l 257
EndSplineSet
EndChar

StartChar: U
Encoding: 85 85 52
GlifName: U_
Width: 512
VWidth: 0
GlyphClass: 2
Flags: MW
LayerCount: 2
Back
Fore
SplineSet
32 193 m 258
 32 700 l 257
 173 700 l 257
 173 193 l 257
 174 147 224 137 229 137 c 257
 229 -5 l 257
 169 -5 32 49 32 193 c 258
283 -5 m 257
 283 137 l 257
 288 137 338 147 339 193 c 257
 339 700 l 257
 479 700 l 257
 479 193 l 258
 479 48 344 -5 283 -5 c 257
EndSplineSet
EndChar

StartChar: V
Encoding: 86 86 57
GlifName: V_
Width: 472
VWidth: 0
GlyphClass: 2
Flags: MW
LayerCount: 2
Back
Fore
SplineSet
8 700 m 261
 152 700 l 261
 311 158 l 261
 258 0 l 261
 211 0 l 261
 8 700 l 261
265 514 m 261
 320 700 l 261
 464 700 l 261
 424 569 383 430 341 290 c 261
 331 290 l 261
 265 514 l 261
EndSplineSet
EndChar

StartChar: W
Encoding: 87 87 58
GlifName: W_
Width: 792
VWidth: 0
GlyphClass: 2
Flags: MW
LayerCount: 2
Back
Fore
SplineSet
10 700 m 257
 154 700 l 257
 313 158 l 257
 260 0 l 257
 213 0 l 257
 10 700 l 257
267 514 m 257
 322 700 l 257
 466 700 l 257
 426 569 385 430 343 290 c 257
 333 290 l 257
 267 514 l 257
322 700 m 257
 466 700 l 257
 624 158 l 257
 572 0 l 257
 525 0 l 257
 322 700 l 257
583 514 m 257
 638 700 l 257
 782 700 l 257
 659 290 l 257
 649 290 l 257
 583 514 l 257
EndSplineSet
EndChar

StartChar: X
Encoding: 88 88 59
GlifName: X_
Width: 442
VWidth: 0
GlyphClass: 2
Flags: MW
LayerCount: 2
Back
Fore
SplineSet
15 0 m 257
 151 361 l 257
 27 700 l 257
 164 700 l 257
 221 548 l 257
 278 700 l 257
 415 700 l 257
 291 361 l 257
 427 0 l 257
 282 0 l 257
 221 167 l 257
 160 0 l 257
 15 0 l 257
EndSplineSet
EndChar

StartChar: Y
Encoding: 89 89 60
GlifName: Y_
Width: 451
VWidth: 0
GlyphClass: 2
Flags: MW
LayerCount: 2
Back
Fore
SplineSet
12 700 m 257
 159 700 l 257
 289 253 l 257
 289 0 l 257
 143 0 l 257
 143 252 l 257
 12 700 l 257
255 565 m 257
 294 700 l 257
 439 700 l 257
 330 331 l 257
 321 331 l 257
 255 565 l 257
EndSplineSet
EndChar

StartChar: Z
Encoding: 90 90 63
GlifName: Z_
Width: 426
VWidth: 0
GlyphClass: 2
Flags: MW
LayerCount: 2
Back
Fore
SplineSet
30 0 m 257
 30 141 l 257
 240 560 l 257
 30 560 l 257
 30 700 l 257
 396 700 l 257
 396 563 l 257
 186 144 l 257
 396 144 l 257
 396 0 l 257
 30 0 l 257
EndSplineSet
EndChar

StartChar: a
Encoding: 97 97 65
GlifName: a
Width: 472
VWidth: 0
GlyphClass: 2
Flags: MW
LayerCount: 2
Back
Fore
SplineSet
24.7001953125 132 m 262
 24.7001953125 182.600585938 l 262
 24.7001953125 218.900390625 32.400390625 255.200195312 78.6005859375 281.600585938 c 260
 125.900390625 309.100585938 290.900390625 341 290.900390625 385 c 260
 290.900390625 392.734375 290.900390625 400.467773438 290.900390625 408.200195312 c 260
 290.900390625 429.452148438 278.930664062 446.369140625 246.900390625 446.700195312 c 261
 246.900390625 569.80078125 l 261
 362.1875 569.80078125 418.5 477.416992188 418.5 416.900390625 c 262
 418.5 156.200195312 l 262
 418.5 148.13671875 421.709960938 124.30078125 447.100585938 124.30078125 c 261
 447.100585938 0 l 261
 404.389648438 0 372.174804688 12.3720703125 349.200195312 31.900390625 c 261
 322.846679688 11.2763671875 289.748046875 0 248 0 c 261
 248 123.200195312 l 261
 282.921875 123.200195312 290.900390625 148.946289062 290.900390625 162.80078125 c 262
 290.900390625 244.600585938 l 261
 249.100585938 220.400390625 164.400390625 203.900390625 149 196.200195312 c 260
 142.400390625 192.900390625 135.80078125 185.200195312 135.80078125 173.100585938 c 262
 135.80078125 158.80078125 l 262
 135.80078125 135.400390625 146.088867188 123.200195312 194.100585938 123.200195312 c 261
 194.100585938 0 l 261
 87.400390625 0 24.7001953125 69.30078125 24.7001953125 132 c 262
32.400390625 426.80078125 m 261
 32.400390625 508.481445312 116.778320312 569.80078125 195.200195312 569.80078125 c 261
 195.200195312 446.600585938 l 261
 164.78515625 446.600585938 147.900390625 426.158203125 147.900390625 382.80078125 c 261
 32.400390625 426.80078125 l 261
EndSplineSet
EndChar

StartChar: acute
Encoding: 180 180 68
GlifName: acute
Width: 395
VWidth: 0
GlyphClass: 2
Flags: MW
LayerCount: 2
Back
Fore
SplineSet
115 605 m 257
 152 757 l 257
 279 757 l 257
 206 605 l 257
 115 605 l 257
EndSplineSet
EndChar

StartChar: ae
Encoding: 272 230 70
GlifName: ae
Width: 666
VWidth: 0
GlyphClass: 2
Flags: MW
LayerCount: 2
Back
Fore
SplineSet
26 110 m 258
 26 180 l 258
 26 289.186518419 268 283.161208555 268 351 c 258
 268 373 l 262
 268 395.241652377 240.62559069 411.052303294 211.000000926 411.120208245 c 0
 176.04187146 411.221355676 138 392.339004794 138 349 c 257
 43 375 l 257
 43 455.337561744 119.651002493 519 207 519 c 256
 263.310840639 519 298.192170493 506.364626833 329 483 c 257
 354.63652177 503.295579735 386.656398061 516 429 516 c 257
 429 401 l 257
 401.374459099 401 384.356341156 381.220137705 384 363 c 257
 384 324 l 257
 525 324 l 257
 525 359 l 258
 525 386.846242189 500.234606127 401 478 401 c 257
 478 516 l 257
 551.93475668 516 639 453.490986873 639 378 c 258
 639 208 l 257
 384 208 l 257
 384 143 l 258
 384 110.256224632 413.877414378 108 450 108 c 0
 503.200925342 108 532.298481318 116.973014062 541 157 c 257
 640 120 l 257
 620.191658195 39.5286114191 546.205792481 0 454 0 c 0
 395.999572792 0 351.405804607 3.39492096913 321 30 c 257
 297.042435725 11.2506018716 266.952669521 1 229 1 c 257
 229 113 l 257
 260.747090648 113 268 144.587608945 268 149 c 258
 268 227 l 257
 220.896511746 199.729559432 127 198.287018681 127 162 c 258
 127 149 l 258
 127 119.701003718 145.249926803 113 180 113 c 257
 180 1 l 257
 83 1 26 53 26 110 c 258
EndSplineSet
EndChar

StartChar: ampersand
Encoding: 38 38 72
GlifName: ampersand
Width: 658
VWidth: 0
GlyphClass: 2
Flags: MW
LayerCount: 2
Back
SplineSet
26 214 m 260xd0
 26 306 81 370 151 404 c 261
 124 424 94 486 94 528 c 260
 94 621 153 681 257 702 c 261
 257 578 l 261xb0
 257 578 231 569 231 536 c 260xb0
 231 501 251 495 257 489 c 261
 257 269 l 261
 233 297 l 261
 208 275 183 251 183 204 c 260
 183 160 210 135 257 135 c 261
 257 3 l 261
 107 3 26 93 26 214 c 260xd0
317 16 m 261
 317 168 l 261
 324 173 325 174 332 180 c 261
 317 198 l 261
 317 486 l 261
 328 495 344 504 344 533 c 260
 344 557 340 570 317 582 c 261
 317 700 l 261
 424 681 477 618 477 520 c 260
 477 445 417 383 363 361 c 261
 431 280 l 261
 443 299 451 320 455 345 c 261
 594 345 l 261
 584 274 559 227 520 180 c 261
 661 16 l 261
 464 16 l 261
 417 72 l 261
 393 50 352 26 317 16 c 261
EndSplineSet
Fore
SplineSet
286.916015625 153.731445312 m 5
 272.140625 142.4296875 256.630859375 137.615234375 241.958007812 137.615234375 c 4
 203.434570312 137.615234375 170.557617188 171.34375 170.557617188 208.705078125 c 4
 170.557617188 226.731445312 178.211914062 245.604492188 196.579101562 261.94140625 c 5
 103.740234375 370.9140625 l 5
 58.5302734375 332.30078125 30 275.84375 30 213 c 4
 30 95.4482421875 125.896484375 0 244 0 c 4
 294.713867188 0 341.263671875 17.7412109375 377.614257812 47.2705078125 c 5
 286.916015625 153.731445312 l 5
343 526 m 260
 343 539 338 566 314 575 c 261
 314 706 l 261
 391.615234375 695.918945312 453.283203125 636.194335938 468.42578125 559 c 5
 343 526 l 260
259 574.5 m 260
 245 571.504882812 231 555.25 231 533 c 260
 231 511.26171875 241.6796875 494.875976562 255 477.5 c 261
 414 287 l 261
 424.286132812 299.883789062 434.857421875 320.657226562 438 345 c 261
 581 345 l 261
 571.810546875 271.41796875 548.837890625 222.708984375 513 174 c 261
 628 37 l 261
 487 0 l 261
 156 393 l 5
 114.798828125 446.426757812 102 481.58984375 102 532 c 4
 102 620.729492188 168.033203125 693.763671875 259 706.069335938 c 5
 259 574.5 l 260
EndSplineSet
EndChar

StartChar: asciicircum
Encoding: 94 94 74
GlifName: asciicircum
Width: 506
VWidth: 0
GlyphClass: 2
Flags: MW
LayerCount: 2
Back
Fore
SplineSet
60 460 m 257
 209 756 l 257
 297 756 l 257
 446 460 l 257
 323 460 l 257
 252 603 l 257
 182 460 l 257
 60 460 l 257
EndSplineSet
EndChar

StartChar: asciitilde
Encoding: 126 126 75
GlifName: asciitilde
Width: 628
VWidth: 0
GlyphClass: 2
Flags: MW
LayerCount: 2
Back
Fore
SplineSet
80 272 m 257
 80 405 l 257
 125 431 162 440 193 440 c 256
 280 440 329 367 417 367 c 256
 452 367 494 379 548 412 c 257
 548 281 l 257
 492 247 448 235 411 235 c 256
 319 235 269 308 187 308 c 256
 157 308 122 299 80 272 c 257
EndSplineSet
EndChar

StartChar: asterisk
Encoding: 42 42 76
GlifName: asterisk
Width: 324
VWidth: 0
GlyphClass: 2
Flags: MW
LayerCount: 2
Back
Fore
SplineSet
15 691 m 257
 57 748 l 257
 125 704 l 257
 125 785 l 257
 196 785 l 257
 196 702 l 257
 267 748 l 257
 309 691 l 257
 221 632 l 257
 308 572 l 257
 267 515 l 257
 196 565 l 257
 196 478 l 257
 125 478 l 257
 125 564 l 257
 57 517 l 257
 16 574 l 257
 103 633 l 257
 15 691 l 257
EndSplineSet
EndChar

StartChar: at
Encoding: 64 64 77
GlifName: at
Width: 803
VWidth: 0
GlyphClass: 2
Flags: MW
LayerCount: 2
Back
Fore
SplineSet
16 309 m 256
 16 533 191 715 448 715 c 256
 610 715 786 612 786 412 c 256
 786 201 654 116 532 116 c 256
 494 116 463 137 453 161 c 257
 439 139 407 116 344 116 c 256
 268 116 205 193 205 289 c 256
 205 444 327 519 409 519 c 256
 473 519 495 493 510 477 c 257
 518 504 l 257
 602 504 l 257
 552 308 l 258
 549 297 545 280 545 266 c 256
 545 249 549 240 563 240 c 256
 598 240 666 280 666 412 c 256
 666 530 549 602 451 602 c 256
 284 602 136 481 136 312 c 256
 136 122 260 22 414 22 c 256
 501 22 587 47 667 103 c 257
 717 12 l 257
 658 -45 538 -87 423 -87 c 256
 195 -87 16 47 16 309 c 256
EndSplineSet
EndChar

StartChar: b
Encoding: 98 98 79
GlifName: b
Width: 466
VWidth: -8
GlyphClass: 2
Flags: MW
LayerCount: 2
Back
Fore
SplineSet
42 0 m 257
 42 716 l 257
 179.5 716 l 257
 179.5 0 l 257
 42 0 l 257
232.5 -0.16015625 m 257
 232.5 129.639648438 l 257
 268.799804688 129.639648438 l 258
 299.599609375 129.639648438 306.19921875 156.040039062 306.19921875 157.139648438 c 257
 306.19921875 412.599609375 l 261
 306.19921875 414.799804688 299.599609375 439 269.899414062 440.099609375 c 262
 232.5 440.099609375 l 261
 232.5 569.900390625 l 261
 268.799804688 569.900390625 l 262
 381 569.900390625 434.899414062 466.5 436 417 c 261
 436 154.940429688 l 258
 436 106.540039062 382.099609375 -0.16015625 268.799804688 -0.16015625 c 258
 232.5 -0.16015625 l 257
EndSplineSet
EndChar

StartChar: backslash
Encoding: 92 92 80
GlifName: backslash
Width: 385
VWidth: 0
GlyphClass: 2
Flags: MW
LayerCount: 2
Back
Fore
SplineSet
42 716 m 257
 168 716 l 257
 343 -23 l 257
 216 -23 l 257
 42 716 l 257
EndSplineSet
EndChar

StartChar: bar
Encoding: 124 124 81
GlifName: bar
Width: 205
VWidth: 0
GlyphClass: 2
Flags: MW
LayerCount: 2
Back
Fore
SplineSet
50 -134 m 257
 50 754 l 257
 155 754 l 257
 155 -134 l 257
 50 -134 l 257
EndSplineSet
EndChar

StartChar: braceleft
Encoding: 123 123 82
GlifName: braceleft
Width: 292
VWidth: 0
GlyphClass: 2
Flags: MW
LayerCount: 2
Back
Fore
SplineSet
15 348 m 257
 51 363 76 370 77 408 c 258
 77 504 l 258
 77 715 163 735 272 735 c 257
 272 635 l 257
 204 635 205 591 204 469 c 257
 204 383 l 258
 204 366 184 354 160 348 c 257
 185 340 204 325 204 304 c 258
 204 207 l 258
 204 86 218 61 272 61 c 257
 272 -38 l 257
 167.720978023 -37 77 -41.003686012 77 192 c 258
 77 290 l 258
 77 322 51 329 15 348 c 257
EndSplineSet
EndChar

StartChar: braceright
Encoding: 125 125 83
GlifName: braceright
Width: 292
VWidth: 0
GlyphClass: 2
Flags: MW
LayerCount: 2
Back
Fore
SplineSet
20 -38 m 261
 20 61 l 257
 74 61 88 87 88 208 c 258
 88 304 l 258
 88 325 107 340 132 348 c 257
 107.305062717 354.173734321 88 365.9375397 88 384 c 258
 88 469 l 258
 87 591 88 635 20 635 c 257
 20 735 l 257
 129 735 215 715 215 504 c 258
 215 408 l 258
 216 370 241 363 277 348 c 257
 241 329 215 322 215 290 c 258
 215 192 l 262
 215 -31.0022567736 124.193188677 -38 20 -38 c 261
EndSplineSet
EndChar

StartChar: bracketleft
Encoding: 91 91 84
GlifName: bracketleft
Width: 258
VWidth: 0
GlyphClass: 2
Flags: MW
LayerCount: 2
Back
Fore
SplineSet
50 -36 m 257
 50 739 l 257
 244 739 l 257
 244 629 l 257
 183 629 l 257
 180 74 l 257
 244 74 l 257
 244 -36 l 257
 50 -36 l 257
EndSplineSet
Colour: ff0000
EndChar

StartChar: bracketright
Encoding: 93 93 85
GlifName: bracketright
Width: 251
VWidth: 0
GlyphClass: 2
Flags: MW
LayerCount: 2
Back
Fore
SplineSet
14 -36 m 257
 14 74 l 257
 78 74 l 257
 75 629 l 257
 14 629 l 257
 14 739 l 257
 208 739 l 257
 208 -36 l 257
 14 -36 l 257
EndSplineSet
Colour: ff0000
EndChar

StartChar: breve
Encoding: 162 728 86
GlifName: breve
Width: 244
VWidth: 0
GlyphClass: 2
Flags: MW
LayerCount: 2
Back
Fore
SplineSet
26 526 m 257
 90 526 l 257
 90 508 104 494 122 494 c 256
 140 494 154 508 154 526 c 257
 218 526 l 257
 218 473 175 430 122 430 c 256
 69 430 26 473 26 526 c 257
EndSplineSet
EndChar

StartChar: brokenbar
Encoding: 275 166 87
GlifName: brokenbar
Width: 214
VWidth: 0
GlyphClass: 2
Flags: HMW
LayerCount: 2
Back
Fore
SplineSet
42 -140 m 257
 42 217 l 257
 164 217 l 257
 164 -140 l 257
 42 -140 l 257
42 407 m 257
 42 764 l 257
 164 764 l 257
 164 407 l 257
 42 407 l 257
EndSplineSet
EndChar

StartChar: bullet
Encoding: 276 8226 88
GlifName: bullet
Width: 352
VWidth: 0
GlyphClass: 2
Flags: MW
LayerCount: 2
Back
Fore
SplineSet
26 344 m 256
 26 428 92 496 176 496 c 256
 260 496 326 428 326 344 c 256
 326 260 260 194 176 194 c 256
 92 194 26 260 26 344 c 256
EndSplineSet
Validated: 1
EndChar

StartChar: c
Encoding: 99 99 89
GlifName: c
Width: 456
VWidth: 0
GlyphClass: 2
Flags: HMW
LayerCount: 2
Back
SplineSet
37.80078125 155.139648438 m 262
 37.80078125 414.740234375 l 261
 38.900390625 463.139648438 92.80078125 567.639648438 208.30078125 567.639648438 c 262
 214.900390625 567.639648438 l 261
 214.900390625 440.040039062 l 261
 178.810546875 440.040039062 168.700195312 418.634765625 168.700195312 412.540039062 c 262
 168.700195312 155.139648438 l 262
 168.700195312 152.940429688 166.200195312 126.540039062 210.200195312 126.540039062 c 260
 215.700195312 125.440429688 l 261
 215.700195312 0.0400390625 l 261
 210.200195312 0.0400390625 l 262
 83.7001953125 0.0400390625 37.80078125 106.740234375 37.80078125 155.139648438 c 262
261.100585938 438.940429688 m 261
 261.100585938 567.639648438 l 261
 267.700195312 567.639648438 l 262
 348 567.639648438 423.900390625 492.83984375 423.900390625 413.639648438 c 262
 423.900390625 409.240234375 l 261
 301.80078125 363.040039062 l 261
 301.80078125 396.040039062 l 262
 301.80078125 407.040039062 301.80078125 412.540039062 297.400390625 421.33984375 c 261
 291.900390625 436.740234375 267.700195312 438.940429688 267.700195312 438.940429688 c 262
 266.600585938 438.940429688 265.5 438.940429688 264.400390625 438.940429688 c 262
 261.100585938 438.940429688 l 261
261.100585938 -1.0595703125 m 261
 261.100585938 127.639648438 l 261
 267.700195312 127.639648438 l 261
 269.900390625 127.639648438 304 130.940429688 309.5 145.240234375 c 261
 313.900390625 154.040039062 313.900390625 160.639648438 313.900390625 171.639648438 c 262
 313.900390625 204.639648438 l 261
 436 158.440429688 l 261
 436 154.040039062 l 262
 436 74.83984375 349.100585938 -1.0595703125 268.80078125 -1.0595703125 c 262
 261.100585938 -1.0595703125 l 261
EndSplineSet
Fore
SplineSet
37.80078125 155.139648438 m 258
 37.7001953125 417.100585938 l 261
 38.89453125 469.655273438 91.3271484375 570 214.799804688 570 c 261
 214.799804688 442.400390625 l 261
 179.709960938 442.400390625 168.599609375 425.995117188 168.599609375 414.900390625 c 262
 168.700195312 155.139648438 l 258
 168.707869309 135.32173715 182.962589119 127.984915585 215.700195312 127.440429688 c 257
 215.700195312 0.0400390625 l 257
 86.0483629998 0.0400390625 37.8207124285 103.23189332 37.80078125 155.139648438 c 258
261 441.30078125 m 261
 261 570 l 261
 350.647460938 570 423.799804688 498.051757812 423.799804688 411.600585938 c 261
 301.700195312 365.400390625 l 261
 301.700195312 398.400390625 l 262
 301.700195312 430.577148438 285.046875 441.30078125 261 441.30078125 c 261
261.100585938 -1.0595703125 m 257
 261.100585938 127.639648438 l 257
 296.083459495 127.639648438 313.900390625 134.789907999 313.900390625 171.639648438 c 258
 313.900390625 204.639648438 l 257
 436 158.440429688 l 257
 437.058469072 73.3925110633 348.635815339 -3.78022872414 261.100585938 -1.0595703125 c 257
EndSplineSet
EndChar

StartChar: caron
Encoding: 277 711 90
GlifName: caron
Width: 270
VWidth: 0
GlyphClass: 2
Flags: MW
LayerCount: 2
Back
Fore
SplineSet
26 666 m 257
 107 666 l 257
 134 609 l 257
 162 666 l 257
 244 666 l 257
 167 514 l 257
 101 514 l 257
 26 666 l 257
EndSplineSet
Validated: 1
EndChar

StartChar: cedilla
Encoding: 184 184 92
GlifName: cedilla
Width: 426
VWidth: 0
GlyphClass: 2
Flags: MW
LayerCount: 2
Back
Fore
SplineSet
123 -36 m 257
 123 55 l 257
 159 55 199 68 199 123 c 257
 291 123 l 257
 291 47 250 -36 123 -36 c 257
EndSplineSet
EndChar

StartChar: cent
Encoding: 278 162 93
GlifName: cent
Width: 456
VWidth: 0
GlyphClass: 2
Flags: MW
LayerCount: 2
Back
Fore
SplineSet
261 31 m 1
 312 31 l 1
 312 -94 l 1
 261 -94 l 1
 261 31 l 1
165 31 m 1
 215 31 l 1
 215 -94 l 1
 165 -94 l 1
 165 31 l 1
261 662 m 1
 312 662 l 1
 312 537 l 1
 261 537 l 1
 261 662 l 1
165 662 m 1
 215 662 l 1
 215 537 l 1
 165 537 l 1
 165 662 l 1
37.80078125 155.139648438 m 258
 37.80078125 414.740234375 l 257
 38.9948064395 467.295369738 95.4275495814 567.639648438 214.900390625 567.639648438 c 257
 214.900390625 440.040039062 l 257
 178.810546875 440.040039062 168.700195312 420.297727273 168.700195312 399.540039062 c 258
 168.700195312 165.139648438 l 258
 168.700195312 151.298763404 181.532226107 129.483342723 214.700195312 128.440429688 c 257
 214.700195312 0.0400390625 l 257
 85.0367464616 0.0400390625 37.80078125 103.221200949 37.80078125 155.139648438 c 258
261.100585938 438.940429688 m 257
 261.100585938 567.639648438 l 257
 348.785271585 567.639648438 423.900390625 495.668667646 423.900390625 409.240234375 c 257
 301.80078125 363.040039062 l 257
 301.80078125 399.040039062 l 258
 301.80078125 427.52140873 281.25456395 438.940429688 261.100585938 438.940429688 c 257
261.100585938 -1.0595703125 m 261
 261.100585938 127.639648438 l 257
 286.438647529 127.639648438 313.900390625 135.485569601 313.900390625 171.639648438 c 258
 313.900390625 204.639648438 l 257
 436 158.440429688 l 257
 436 71.3343213167 349.495077335 -1.0595703125 261.100585938 -1.0595703125 c 261
EndSplineSet
EndChar

StartChar: circumflex
Encoding: 279 710 94
GlifName: circumflex
Width: 270
VWidth: 0
GlyphClass: 2
Flags: MW
LayerCount: 2
Back
Fore
SplineSet
26 514 m 257
 101 666 l 257
 167 666 l 257
 244 514 l 257
 162 514 l 257
 134 571 l 257
 107 514 l 257
 26 514 l 257
EndSplineSet
Validated: 1
EndChar

StartChar: colon
Encoding: 58 58 95
GlifName: colon
Width: 250
VWidth: 0
GlyphClass: 2
Flags: MW
LayerCount: 2
Back
Fore
SplineSet
50 140 m 260
 50 182 83 216 125 216 c 260
 167 216 200 182 200 140 c 260
 200 98 167 65 125 65 c 260
 83 65 50 98 50 140 c 260
50 430 m 260
 50 472 83 506 125 506 c 260
 167 506 200 472 200 430 c 260
 200 388 167 355 125 355 c 260
 83 355 50 388 50 430 c 260
EndSplineSet
EndChar

StartChar: comma
Encoding: 44 44 96
GlifName: comma
Width: 265
VWidth: 0
GlyphClass: 2
Flags: HMW
LayerCount: 2
Back
Fore
SplineSet
51 -23 m 261
 88 129 l 261
 215 129 l 261
 178 -23 l 261
 51 -23 l 261
EndSplineSet
EndChar

StartChar: copyright
Encoding: 280 169 97
GlifName: copyright
Width: 824
VWidth: 0
GlyphClass: 2
Flags: MW
LayerCount: 2
Back
Fore
SplineSet
35 339 m 256
 35 589 249 725 397 726 c 257
 397 636 l 257
 268 635 124 516 124 339 c 256
 124 181.150391472 249.072601191 51.092409532 397 44 c 257
 397 -49 l 257
 222.151995229 -42.9006509964 35 107.92868647 35 339 c 256
272 231 m 257
 272 447 l 257
 272 485 306 566 397 566 c 257
 397 476 l 257
 368 476 362 450 362 447 c 257
 362 231 l 257
 362 228 368 203 397 203 c 257
 397 112 l 257
 306 112 272 193 272 231 c 257
432 -49 m 261
 432 44 l 257
 578 51 705 178.970591062 705 332 c 256
 705 513.454910888 565.243345135 634.967105852 432 636 c 257
 432 726 l 257
 587.471232756 724.949518698 794 584.546686848 794 327 c 257
 788 104 604 -43 432 -49 c 261
432 112 m 257
 432 201 l 257
 449.448170655 201.404347146 462 217.379947165 462 242 c 2
 462 264 l 257
 550 232 l 257
 550 171 491 112 432 112 c 257
432 476 m 257
 432 566 l 257
 491 566 550 507 550 446 c 257
 462 413 l 257
 462 432 l 258
 462 461.810169043 446.434151806 475.507792393 432 476 c 257
EndSplineSet
EndChar

StartChar: currency
Encoding: 164 164 98
GlifName: currency
Width: 646
VWidth: 0
GlyphClass: 2
Flags: MW
LayerCount: 2
Back
Fore
SplineSet
41 190 m 261
 136 275 l 257
 136 288 l 1
 136 440 l 1
 136 456 l 257
 40 540 l 257
 112 622 l 257
 188 555 l 257
 214.844344194 579.696796658 251.026205433 595 300 595 c 257
 300 477 l 257
 265.403610428 477 256 458.278569603 256 442 c 258
 256 285 l 258
 256 266.114435624 268.096831877 251 300 251 c 257
 300 133 l 257
 249.955165324 133 213.847131201 149.226754047 187 175 c 257
 112 109 l 257
 41 190 l 261
341 133 m 257
 341 250 l 257
 374.102982691 250 383 268.803317783 383 285 c 258
 383 441 l 258
 383 460.057474722 373.116805644 477 341 477 c 257
 341 595 l 257
 388.187152434 595 422.070468731 579.775168767 449 555 c 257
 524 622 l 257
 596 540 l 257
 500 455 l 257
 500 442 l 1
 500 288 l 1
 500 275 l 257
 595 190 l 257
 524 109 l 257
 450 174 l 257
 423.139392161 148.213816474 389.138052791 133 341 133 c 257
EndSplineSet
EndChar

StartChar: d
Encoding: 100 100 99
GlifName: d
Width: 461
VWidth: -8
GlyphClass: 2
Flags: MW
LayerCount: 2
Back
Fore
SplineSet
30 154.990234375 m 258
 30 414.58984375 l 257
 31.1005859375 464.08984375 83.900390625 567.490234375 195 567.490234375 c 258
 228 567.490234375 l 257
 228 437.690429688 l 257
 195 437.690429688 l 257
 165.299804688 436.58984375 159.799804688 412.389648438 159.799804688 410.190429688 c 258
 159.799804688 157.190429688 l 257
 159.799804688 154.990234375 166.400390625 129.690429688 197.200195312 129.690429688 c 258
 228 129.690429688 l 257
 228 -0.1103515625 l 257
 197.200195312 -0.1103515625 l 258
 82.7998046875 -0.1103515625 30 106.58984375 30 154.990234375 c 258
280.799804688 -0.1103515625 m 257
 281 716 l 261
 419.600585938 716 l 261
 419.400390625 -0.1103515625 l 257
 280.799804688 -0.1103515625 l 257
EndSplineSet
EndChar

StartChar: dagger
Encoding: 281 8224 100
GlifName: dagger
Width: 453
VWidth: 0
GlyphClass: 2
Flags: MW
LayerCount: 2
Back
Fore
SplineSet
26 450 m 257
 26 577 l 257
 156 577 l 257
 156 764 l 257
 297 764 l 257
 297 577 l 257
 427 577 l 257
 427 450 l 257
 297 450 l 257
 297 -56 l 257
 156 -56 l 257
 156 450 l 257
 26 450 l 257
EndSplineSet
EndChar

StartChar: daggerdbl
Encoding: 282 8225 101
GlifName: daggerdbl
Width: 453
VWidth: 0
GlyphClass: 2
Flags: MW
LayerCount: 2
Back
Fore
SplineSet
26 131 m 257
 26 258 l 257
 156 258 l 257
 156 450 l 257
 26 450 l 257
 26 577 l 257
 156 577 l 257
 156 764 l 257
 297 764 l 257
 297 577 l 257
 427 577 l 257
 427 450 l 257
 297 450 l 257
 297 258 l 257
 427 258 l 257
 427 131 l 257
 297 131 l 257
 297 -56 l 257
 156 -56 l 257
 156 131 l 257
 26 131 l 257
EndSplineSet
EndChar

StartChar: degree
Encoding: 176 176 102
GlifName: degree
Width: 301
VWidth: 0
GlyphClass: 2
Flags: MW
LayerCount: 2
Back
Fore
SplineSet
35 583 m 256
 35 647 87 698 150 698 c 256
 214 698 266 647 266 583 c 256
 266 520 214 468 150 468 c 256
 87 468 35 520 35 583 c 256
112 583 m 256
 112 562 129 545 150 545 c 256
 172 545 189 562 189 583 c 256
 189 605 172 622 150 622 c 256
 129 622 112 605 112 583 c 256
EndSplineSet
EndChar

StartChar: dieresis
Encoding: 168 168 103
GlifName: dieresis
Width: 430
VWidth: 0
GlyphClass: 2
Flags: HMW
LayerCount: 2
Back
Fore
SplineSet
55 678 m 256
 55 720 88 754 130 754 c 256
 172 754 205 720 205 678 c 256
 205 636 172 603 130 603 c 256
 88 603 55 636 55 678 c 256
225 678 m 256
 225 720 258 754 300 754 c 256
 342 754 375 720 375 678 c 256
 375 636 342 603 300 603 c 256
 258 603 225 636 225 678 c 256
EndSplineSet
EndChar

StartChar: divide
Encoding: 247 247 104
GlifName: divide
Width: 650
VWidth: 0
GlyphClass: 2
Flags: MW
LayerCount: 2
Back
Fore
SplineSet
68 228 m 261
 68 355 l 261
 518 355 l 261
 518 228 l 261
 68 228 l 261
EndSplineSet
Refer: 175 46 N 1 0 0 1 196 415 2
Refer: 175 46 N 1 0 0 1 196 62 2
EndChar

StartChar: dollar
Encoding: 36 36 105
GlifName: dollar
Width: 481
VWidth: 0
GlyphClass: 2
Flags: MW
LayerCount: 2
Back
Fore
SplineSet
20 158 m 257
 147 203 l 257
 149 147 203 127 203 127 c 257
 203 -47 l 257
 132 -47 l 257
 132 13 l 257
 63 45 21 116 20 158 c 257
28 508 m 256
 28 599 81 652 132 679 c 257
 132 750 l 257
 203 750 l 257
 203 568 l 257
 182 562 162 537 162 513 c 256
 162 486 179 469 203 454 c 257
 203 302 l 257
 184 309 166 316 151 323 c 256
 80 357 28 403 28 508 c 256
258 -47 m 261
 258 127 l 261
 282 130 320 150 320 203 c 256
 320 241 293 263 258 280 c 257
 258 428 l 257
 284 418 310 407 333 394 c 256
 394 358 461 311 461 209 c 256
 461 122 404 44 329 12 c 257
 329 -47 l 257
 258 -47 l 261
258 568 m 257
 258 750 l 257
 329 750 l 257
 329 682 l 257
 392 649 428 580 433 553 c 257
 303 510 l 257
 298 557 258 568 258 568 c 257
EndSplineSet
EndChar

StartChar: dotaccent
Encoding: 255 729 106
GlifName: dotaccent
Width: 202
VWidth: 0
GlyphClass: 2
Flags: MW
LayerCount: 2
Back
Fore
SplineSet
26 678 m 256
 26 720 59 754 101 754 c 256
 143 754 176 720 176 678 c 256
 176 636 143 603 101 603 c 256
 59 603 26 636 26 678 c 256
EndSplineSet
Validated: 1
EndChar

StartChar: dotlessi
Encoding: 185 305 107
GlifName: dotlessi
Width: 174
VWidth: 0
GlyphClass: 2
Flags: MW
LayerCount: 2
Back
Fore
SplineSet
26 0 m 257
 26 516 l 257
 148 516 l 257
 148 0 l 257
 26 0 l 257
EndSplineSet
EndChar

StartChar: e
Encoding: 101 101 108
GlifName: e
Width: 485
VWidth: 0
GlyphClass: 2
Flags: HMW
LayerCount: 2
Back
SplineSet
268.80078125 -0.009765625 m 261
 268.80078125 122.08984375 l 261
 311.066667157 122.08984375 331.220557593 145.18252577 338.100585938 172.690429688 c 261
 447 131.990234375 l 261
 445.900390625 129.790039062 l 261
 428.573070665 55.8597303559 350.610260533 -0.009765625 268.80078125 -0.009765625 c 261
EndSplineSet
Fore
SplineSet
37.80078125 155.08984375 m 258
 37.80078125 416.690429688 l 257
 38.9765625 469.637695312 99.359375 569.58984375 214.900390625 569.58984375 c 257
 214.900390625 443.990234375 l 257
 189.36328125 443.990234375 172 422.821289062 172 407.889648438 c 258
 172 358.389648438 l 257
 320.5 358.389648438 l 257
 320.5 406.889648438 l 258
 320.5 439.482421875 293.258789062 444.190429688 268.80078125 444.190429688 c 257
 268.80078125 569.58984375 l 257
 350.12890625 569.58984375 445.900390625 508.830078125 445.900390625 417.790039062 c 258
 445.900390625 228.790039062 l 257
 172 228.790039062 l 257
 172 155.08984375 l 258
 172 139.520813236 182.227184607 122.790039062 216 122.790039062 c 257
 216 -0.009765625 l 257
 98.3311212284 -0.009765625 37.80078125 102.095139341 37.80078125 155.08984375 c 258
268.80078125 -0.009765625 m 257
 268.80078125 122.08984375 l 257
 311.066667157 122.08984375 330.220557593 145.18252577 338.100585938 172.690429688 c 257
 447 131.990234375 l 257
 431.57017495 68.09911905 365.447018952 -0.009765625 268.80078125 -0.009765625 c 257
EndSplineSet
EndChar

StartChar: eight
Encoding: 56 56 113
GlifName: eight
Width: 492
VWidth: 0
GlyphClass: 2
Flags: HMW
LayerCount: 2
Back
Fore
SplineSet
276 285 m 257
 314.072265625 277.645507812 333.001953125 241.583007812 333.001953125 205.670898438 c 0
 333.001953125 169.306640625 313.59375 133.096679688 275 127 c 257
 275 -2 l 257
 358 -2 462 80 462 200 c 256
 462 284 425 331 398 349 c 257
 425 367 462 414 462 498 c 256
 462 618 358 700 275 700 c 257
 275 571 l 257
 313.59375 564.903320312 333.001953125 528.693359375 333.001953125 492.329101562 c 0
 333.001953125 456.416992188 314.072265625 420.354492188 276 413 c 257
 276 285 l 257
216 285 m 257
 177.927734375 277.645507812 158.998046875 241.583007812 158.998046875 205.670898438 c 0
 158.998046875 169.306640625 178.40625 133.096679688 217 127 c 257
 217 -2 l 257
 134 -2 30 80 30 200 c 256
 30 284 67 331 94 349 c 257
 67 367 30 414 30 498 c 256
 30 618 134 700 217 700 c 257
 217 571 l 257
 178.40625 564.903320312 158.998046875 528.693359375 158.998046875 492.329101562 c 0
 158.998046875 456.416992188 177.927734375 420.354492188 216 413 c 257
 216 285 l 257
EndSplineSet
EndChar

StartChar: emdash
Encoding: 283 8212 114
GlifName: emdash
Width: 906
VWidth: 0
GlyphClass: 2
Flags: MW
LayerCount: 2
Back
Fore
SplineSet
26 230 m 257
 26 357 l 257
 880 357 l 257
 880 230 l 257
 26 230 l 257
EndSplineSet
EndChar

StartChar: endash
Encoding: 284 8211 115
GlifName: endash
Width: 532
VWidth: 0
GlyphClass: 2
Flags: MW
LayerCount: 2
Back
Fore
SplineSet
26 230 m 257
 26 357 l 257
 506 357 l 257
 506 230 l 257
 26 230 l 257
EndSplineSet
EndChar

StartChar: equal
Encoding: 61 61 116
GlifName: equal
Width: 418
VWidth: 0
GlyphClass: 2
Flags: MW
LayerCount: 2
Back
Fore
SplineSet
50 131 m 257
 50 258 l 257
 368 258 l 257
 368 131 l 257
 50 131 l 257
50 325 m 257
 50 452 l 257
 368 452 l 257
 368 325 l 257
 50 325 l 257
EndSplineSet
EndChar

StartChar: eth
Encoding: 285 240 117
GlifName: eth
Width: 420
VWidth: 0
GlyphClass: 2
Flags: MW
LayerCount: 2
Back
Fore
SplineSet
28 141 m 258
 28 376 l 258
 28 424.751528086 81.5188246079 516 192 516 c 257
 192 398 l 257
 156.092445634 398 148 376.836399634 148 363 c 258
 148 154 l 258
 148 131.442730763 158.636582651 117 192 117 c 257
 192 -1 l 257
 80.4842183772 -1 28 93.1756042126 28 141 c 258
192 647 m 261
 192 714 l 257
 250 703 297 679 330 641 c 257
 380 657 l 257
 398 599 l 257
 364 588 l 257
 383 548 392 500 392 442 c 256
 392 141 l 256
 392 92.1497684781 340.640067573 -1 233 -1 c 257
 233 117 l 257
 267.124636793 117 275 137.896779178 275 152 c 258
 275 363 l 258
 275 383.591519587 266.242819853 398 233 398 c 257
 233 516 l 257
 247.850914894 516 260.061888739 515.528575798 273 512 c 257
 271 530 270 545 267 558 c 257
 210 541 l 257
 192 598 l 257
 242 614 l 257
 230 627 214 637 192 647 c 261
EndSplineSet
EndChar

StartChar: exclam
Encoding: 33 33 118
GlifName: exclam
Width: 244
VWidth: 0
GlyphClass: 2
Flags: HMW
LayerCount: 2
Back
Fore
SplineSet
47 53 m 260
 47 95 80 129 122 129 c 260
 164 129 197 95 197 53 c 260
 197 11 164 -22 122 -22 c 260
 80 -22 47 11 47 53 c 260
59 166 m 261
 59 700 l 261
 188 700 l 261
 188 166 l 261
 59 166 l 261
EndSplineSet
EndChar

StartChar: exclamdown
Encoding: 286 161 119
GlifName: exclamdown
Width: 245
VWidth: -9
GlyphClass: 2
Flags: MW
LayerCount: 2
Back
SplineSet
26 647 m 256x30
 26 689 59 722 101 722 c 256
 143 722 176 689 176 647 c 256
 176 605 143 571 101 571 c 256
 59 571 26 605 26 647 c 256x30
38 534 m 257xa8
 167 534 l 257
 167 0 l 257
 38 0 l 257
 38 534 l 257xa8
EndSplineSet
Validated: 1
Fore
SplineSet
21.400390625 494.639648438 m 260
 21.400390625 538.639648438 57.7001953125 574.940429688 101.700195312 574.940429688 c 260
 145.700195312 574.940429688 182 538.639648438 182 494.639648438 c 260
 182 451.740234375 145.700195312 415.440429688 101.700195312 415.440429688 c 260
 57.7001953125 415.440429688 21.400390625 451.740234375 21.400390625 494.639648438 c 260
35.7001953125 -198.360351562 m 261
 35.7001953125 369.240234375 l 261
 169.900390625 369.240234375 l 261
 169.900390625 -198.360351562 l 261
 35.7001953125 -198.360351562 l 261
EndSplineSet
EndChar

StartChar: f
Encoding: 102 102 120
GlifName: f
Width: 321
VWidth: -8
GlyphClass: 2
Flags: HMW
LayerCount: 2
Back
Fore
SplineSet
15.19921875 388.990234375 m 257
 15.19921875 518.58984375 l 257
 84.5 518.58984375 l 257
 84.5 558.190429688 l 258
 84.5 607.690429688 140.599609375 715.490234375 253.899414062 716.58984375 c 258
 321 716.58984375 l 257
 291.299804688 587.889648438 l 257
 255 587.889648438 l 257
 224.19921875 586.790039062 218.69921875 561.490234375 218.69921875 558.190429688 c 258
 218.69921875 519.490234375 l 257
 291.299804688 518.58984375 l 257
 291.299804688 388.990234375 l 257
 218.69921875 388.990234375 l 257
 218.69921875 -0.009765625 l 257
 84.5 -0.009765625 l 257
 84.5 388.990234375 l 257
 15.19921875 388.990234375 l 257
EndSplineSet
EndChar

StartChar: fi
Encoding: 287 64257 121
GlifName: fi
Width: 494
VWidth: 0
GlyphClass: 2
Flags: MW
LayerCount: 2
Back
Fore
SplineSet
26 400 m 257
 26 516 l 257
 89 516 l 257
 89 552 l 258
 89 597 140 695 243 696 c 258
 304 696 l 257
 277 579 l 257
 244 579 l 258
 216 578 211 555 211 552 c 258
 211 516 l 257
 457 516 l 257
 457 0 l 257
 335 0 l 257
 335 400 l 257
 211 400 l 257
 211 0 l 257
 89 0 l 257
 89 400 l 257
 26 400 l 257
322 630 m 256
 322 670 355 703 395 703 c 256
 435 703 468 670 468 630 c 256
 468 591 435 558 395 558 c 256
 355 558 322 591 322 630 c 256
EndSplineSet
EndChar

StartChar: five
Encoding: 53 53 122
GlifName: five
Width: 520
VWidth: 0
GlyphClass: 2
Flags: MW
LayerCount: 2
Back
Fore
SplineSet
30 176 m 257
 30 85 127 -1 225 -1 c 257
 225 129 l 257
 208 129 153 153 151 199 c 257
 30 176 l 257
45 354 m 257
 74 700 l 257
 433 700 l 257
 433 570 l 257
 195 570 l 257
 183 442 l 257
 196 445 211 447 228 447 c 257
 228 324 l 257
 194 321 168 303 160 286 c 257
 45 354 l 257
282 0 m 257
 282 126 l 257
 331 135 362 174 362 224 c 256
 362 280 320 319 282 324 c 257
 282 447 l 257
 425 444 490 333 490 223 c 256
 490 82 387 2 282 0 c 257
EndSplineSet
EndChar

StartChar: fl
Encoding: 288 64258 123
GlifName: fl
Width: 483
VWidth: 0
GlyphClass: 2
Flags: MW
LayerCount: 2
Back
Fore
SplineSet
26 400 m 257
 26 516 l 257
 89 516 l 257
 89 552 l 258
 89 597 140 695 243 696 c 258
 457 696 l 257
 457 0 l 257
 331 0 l 257
 331 579 l 257
 244 579 l 258
 216 578 211 555 211 552 c 258
 211 515 l 257
 277 516 l 257
 277 400 l 257
 211 400 l 257
 211 0 l 257
 89 0 l 257
 89 400 l 257
 26 400 l 257
EndSplineSet
EndChar

StartChar: florin
Encoding: 289 402 124
GlifName: florin
Width: 382
VWidth: 0
GlyphClass: 2
Flags: MW
LayerCount: 2
Back
Fore
SplineSet
26 -168 m 257
 53 -63 l 257
 108 -63 l 258
 136 -62 141 -39 141 -36 c 260
 141 400 l 261
 78 400 l 257
 78 516 l 257
 141 516 l 257
 141 552 l 258
 141 597 192 695 295 696 c 258
 356 696 l 257
 329 579 l 257
 296 579 l 258
 268 578 263 555 263 552 c 258
 263 515 l 257
 329 516 l 257
 329 400 l 257
 263 400 l 257
 263 -30 l 256
 263 -92 221 -168 109 -168 c 258
 26 -168 l 257
EndSplineSet
EndChar

StartChar: four
Encoding: 52 52 125
GlifName: four
Width: 491
VWidth: 0
GlyphClass: 2
Flags: HMW
LayerCount: 2
Back
Fore
SplineSet
20 142 m 257
 20 272 l 257
 210 598 l 257
 210 346 l 257
 164 272 l 257
 210 272 l 257
 210 142 l 257
 20 142 l 257
267 0 m 257
 267 701 l 257
 407 701 l 257
 407 272 l 257
 461 272 l 257
 461 142 l 257
 407 142 l 257
 407 0 l 257
 267 0 l 257
EndSplineSet
EndChar

StartChar: fraction
Encoding: 290 8260 126
GlifName: fraction
Width: 560
VWidth: 0
GlyphClass: 2
Flags: MW
LayerCount: 2
Back
Fore
SplineSet
26 -2 m 257
 458 702 l 257
 534 702 l 257
 109 -2 l 257
 26 -2 l 257
EndSplineSet
Validated: 1
EndChar

StartChar: g
Encoding: 103 103 127
GlifName: g
Width: 456
VWidth: 9
GlyphClass: 2
Flags: MW
LayerCount: 2
Back
Fore
SplineSet
20 -190.059570312 m 257
 50.80078125 -66.8603515625 l 257
 248.80078125 -66.8603515625 l 257
 282.900390625 -65.759765625 290.600585938 -38.259765625 290.600585938 -34.9599609375 c 258
 290.600585938 12.33984375 l 257
 276.424148661 8.79599662735 262.310994048 7.9404296875 245.5 7.9404296875 c 257
 245.5 131.940429688 l 257
 281.046952337 131.940429688 290.600585938 150.383865161 290.600585938 164.940429688 c 258
 290.600585938 420.440429688 l 258
 290.600585938 425.788502838 280.997242658 452.33984375 245.5 452.33984375 c 257
 245.5 576.639648438 l 257
 261.430584122 576.639648438 277.353037611 574.753296517 290.600585938 571.139648438 c 257
 290.600585938 576.639648438 l 257
 419.30078125 576.639648438 l 257
 419.30078125 -34.9599609375 l 258
 419.30078125 -82.259765625 364.30078125 -188.959960938 251 -190.059570312 c 257
 20 -190.059570312 l 257
29.900390625 161.940429688 m 258
 29.900390625 424.83984375 l 257
 31.0473025865 475.322304348 86.190843137 576.639648438 202.600585938 576.639648438 c 257
 202.600585938 452.33984375 l 257
 166.155297333 452.33984375 156.400390625 426.832970968 156.400390625 421.540039062 c 258
 156.400390625 163.040039062 l 258
 156.400390625 149.765827147 167.197807981 132.240234375 202.600585938 132.240234375 c 257
 202.600585938 7.9404296875 l 257
 85.1199634917 7.9404296875 29.900390625 112.514556681 29.900390625 161.940429688 c 258
EndSplineSet
EndChar

StartChar: germandbls
Encoding: 223 223 128
GlifName: germandbls
Width: 522
VWidth: 0
GlyphClass: 2
Flags: MW
LayerCount: 2
Back
Fore
SplineSet
26 0 m 257
 26 457 l 258
 27 531 16 705 226 705 c 256
 396 705 406 575 406 518 c 258
 406 405 l 257
 342 406 l 257
 308 400 305 368 305 361 c 256
 305 349 310 326 391 299 c 256
 441 282 496 243 496 160 c 256
 496 57 420 0 327 0 c 258
 199 0 l 257
 199 109 l 257
 327 109 l 258
 342 110 379 120 379 153 c 256
 379 198 331 200 276 228 c 256
 228 252 191 287 191 371 c 256
 191 446 244 489 294 507 c 257
 294 519 l 258
 294 572 259 586 225 586 c 256
 174 586 155 554 155 498 c 258
 155 0 l 257
 26 0 l 257
EndSplineSet
EndChar

StartChar: grave
Encoding: 96 96 129
GlifName: grave
Width: 346
VWidth: 0
GlyphClass: 2
Flags: MW
LayerCount: 2
Back
Fore
SplineSet
42 757 m 257
 169 757 l 257
 206 605 l 257
 115 605 l 257
 42 757 l 257
EndSplineSet
EndChar

StartChar: greater
Encoding: 62 62 130
GlifName: greater
Width: 414
VWidth: 0
GlyphClass: 2
Flags: HMW
LayerCount: 2
Back
Fore
SplineSet
30 79 m 257
 30 206 l 257
 206 292 l 257
 30 370 l 257
 30 500 l 257
 384 322 l 257
 384 258 l 257
 30 79 l 257
EndSplineSet
EndChar

StartChar: guillemotleft
Encoding: 291 171 131
GlifName: guillemotleft
Width: 457
VWidth: 0
GlyphClass: 2
Flags: HMW
LayerCount: 2
Back
Fore
SplineSet
20 259 m 257
 20 321 l 257
 231 477 l 257
 231 352 l 257
 142 292 l 257
 231 224 l 257
 231 102 l 257
 20 259 l 257
231 259 m 257
 231 321 l 257
 442 477 l 257
 442 352 l 257
 353 292 l 257
 442 224 l 257
 442 102 l 257
 231 259 l 257
EndSplineSet
EndChar

StartChar: guillemotright
Encoding: 292 187 132
GlifName: guillemotright
Width: 457
VWidth: 0
GlyphClass: 2
Flags: HMW
LayerCount: 2
Back
Fore
SplineSet
15 102 m 257
 15 224 l 257
 104 292 l 257
 15 352 l 257
 15 477 l 257
 226 321 l 257
 226 259 l 257
 15 102 l 257
226 102 m 257
 226 224 l 257
 315 292 l 257
 226 352 l 257
 226 477 l 257
 437 321 l 257
 437 259 l 257
 226 102 l 257
EndSplineSet
EndChar

StartChar: guilsinglleft
Encoding: 293 8249 133
GlifName: guilsinglleft
Width: 338
VWidth: 0
GlyphClass: 2
Flags: MW
LayerCount: 2
Back
Fore
SplineSet
26 292 m 257
 157 500 l 257
 312 500 l 257
 181 292 l 257
 312 79 l 257
 157 79 l 257
 26 292 l 257
EndSplineSet
EndChar

StartChar: guilsinglright
Encoding: 294 8250 134
GlifName: guilsinglright
Width: 338
VWidth: 0
GlyphClass: 2
Flags: MW
LayerCount: 2
Back
Fore
SplineSet
26 79 m 257
 157 292 l 257
 26 500 l 257
 181 500 l 257
 312 292 l 257
 181 79 l 257
 26 79 l 257
EndSplineSet
EndChar

StartChar: h
Encoding: 104 104 135
GlifName: h
Width: 473
VWidth: -8
GlyphClass: 2
Flags: MW
LayerCount: 2
Back
Fore
SplineSet
41.5 -8.0595703125 m 257
 41.5 715.639648438 l 261
 166.900390625 715.639648438 l 261
 166.900390625 546.33984375 l 257
 181.362821383 551.1635074 202.632427992 552.940429688 220.799804688 552.940429688 c 257
 220.799804688 429.740234375 l 257
 184.085405287 429.740234375 168 397.308229189 168 392.33984375 c 258
 168 -8.0595703125 l 257
 41.5 -8.0595703125 l 257
270.299804688 429.740234375 m 257
 270.299804688 552.940429688 l 257
 378.988666354 552.940429688 443 477.821671533 443 402.240234375 c 258
 443 -8.0595703125 l 257
 317.599609375 -8.0595703125 l 257
 317.599609375 392.33984375 l 258
 317.599609375 396.370158652 309.285808955 429.740234375 270.299804688 429.740234375 c 257
EndSplineSet
EndChar

StartChar: hyphen
Encoding: 45 45 137
GlifName: hyphen
Width: 416
VWidth: 0
GlyphClass: 2
Flags: HMW
LayerCount: 2
Back
Fore
SplineSet
50 230 m 257
 50 357 l 257
 366 357 l 257
 366 230 l 257
 50 230 l 257
EndSplineSet
EndChar

StartChar: i
Encoding: 105 105 138
GlifName: i
Width: 245
VWidth: -9
GlyphClass: 2
Flags: HMW
LayerCount: 2
Back
Fore
SplineSet
50.4306640625 650.694335938 m 260
 50.4306640625 690.294921875 83.1005859375 722.965820312 122.700195312 722.965820312 c 260
 162.299804688 722.965820312 194.969726562 690.294921875 194.969726562 650.694335938 c 260
 194.969726562 612.084960938 162.299804688 579.415039062 122.700195312 579.415039062 c 260
 83.1005859375 579.415039062 50.4306640625 612.084960938 50.4306640625 650.694335938 c 260
56.7001953125 -0.3603515625 m 257
 56.7001953125 540.240234375 l 257
 190.900390625 540.240234375 l 257
 190.900390625 -0.3603515625 l 257
 56.7001953125 -0.3603515625 l 257
EndSplineSet
EndChar

StartChar: j
Encoding: 106 106 143
GlifName: j
Width: 242
VWidth: 0
GlyphClass: 2
Flags: MW
LayerCount: 2
Back
Fore
SplineSet
47.4306640625 650.694335938 m 256
 47.4306640625 690.294921875 80.1005859375 722.965820312 119.700195312 722.965820312 c 256
 159.299804688 722.965820312 191.969726562 690.294921875 191.969726562 650.694335938 c 256
 191.969726562 612.084960938 159.299804688 579.415039062 119.700195312 579.415039062 c 256
 80.1005859375 579.415039062 47.4306640625 612.084960938 47.4306640625 650.694335938 c 256
-42 -199.360351562 m 257
 -12.2998046875 -70.66015625 l 257
 17.400390625 -70.66015625 l 257
 48.2001953125 -69.5595703125 53.6998187873 -44.2597655613 53.7001953125 -42.0595703125 c 258
 53.7998046875 540 l 257
 188 540 l 257
 187.900390625 -42.0595703125 l 258
 187.891543036 -93.7597641288 132.900390625 -199.360351562 20.7001953125 -199.360351562 c 258
 -42 -199.360351562 l 257
EndSplineSet
EndChar

StartChar: k
Encoding: 107 107 144
GlifName: k
Width: 500
VWidth: -8
GlyphClass: 2
Flags: HMW
LayerCount: 2
Back
Fore
SplineSet
42 0 m 257
 42 716 l 257
 179.5 716 l 257
 179.5 0 l 257
 42 0 l 257
208.80078125 287.299804688 m 257
 332 570 l 257
 478.30078125 570 l 257
 351.80078125 287.299804688 l 257
 480 -0.1103515625 l 257
 334.799804688 -0.1103515625 l 257
 208.80078125 287.299804688 l 257
EndSplineSet
EndChar

StartChar: l
Encoding: 108 108 145
GlifName: l
Width: 228
VWidth: -8
GlyphClass: 2
Flags: MW
LayerCount: 2
Back
Fore
SplineSet
41.900390625 0 m 257
 41.900390625 716 l 257
 186 716 l 257
 186 0 l 257
 41.900390625 0 l 257
EndSplineSet
EndChar

StartChar: less
Encoding: 60 60 146
GlifName: less
Width: 414
VWidth: 0
GlyphClass: 2
Flags: HMW
LayerCount: 2
Back
Fore
SplineSet
30 258 m 257
 30 322 l 257
 384 500 l 257
 384 370 l 257
 208 292 l 257
 384 206 l 257
 384 79 l 257
 30 258 l 257
EndSplineSet
EndChar

StartChar: logicalnot
Encoding: 296 172 147
GlifName: logicalnot
Width: 540
VWidth: 0
GlyphClass: 2
Flags: MW
LayerCount: 2
Back
Fore
SplineSet
40 327 m 257
 40 442 l 257
 490 442 l 257
 490 208 l 257
 372 208 l 257
 372 327 l 257
 40 327 l 257
EndSplineSet
EndChar

StartChar: lslash
Encoding: 297 322 148
GlifName: lslash
Width: 424
VWidth: 0
GlyphClass: 2
Flags: HMW
LayerCount: 2
Back
Fore
SplineSet
40 302 m 261
 340 536 l 261
 412 443 l 261
 112 209 l 261
 40 302 l 261
158.900390625 -9.1103515625 m 257
 158.900390625 706.690429688 l 257
 303 706.690429688 l 257
 303 -9.1103515625 l 257
 158.900390625 -9.1103515625 l 257
EndSplineSet
EndChar

StartChar: m
Encoding: 109 109 149
GlifName: m
Width: 762
VWidth: 0
GlyphClass: 2
Flags: MW
LayerCount: 2
Back
Fore
SplineSet
37.599609375 -0.16015625 m 257
 37.599609375 414.540039062 l 258
 37.599609375 471.457445238 99.7042976124 570.740234375 219.099609375 570.740234375 c 257
 219.099609375 437.639648438 l 257
 183.823337496 437.639648438 174 415.00944329 174 398.040039062 c 262
 174 -0.16015625 l 257
 37.599609375 -0.16015625 l 257
265.299804688 437.639648438 m 257
 265.299804688 570.740234375 l 257
 315.703352041 570.740234375 351.214544615 556.924596975 380.799804688 534.440429688 c 257
 410.30482477 558.044445754 445.957209626 570.740234375 496.299804688 570.740234375 c 257
 496.299804688 437.639648438 l 257
 460.079433278 437.639648438 449 418.990174644 449 398.040039062 c 262
 449 -0.16015625 l 257
 312.599609375 -0.16015625 l 257
 312.599609375 398.040039062 l 262
 312.599609375 420.381028407 300.587594504 437.639648438 265.299804688 437.639648438 c 257
541.399414062 437.639648438 m 257
 541.399414062 570.740234375 l 257
 661.863118812 570.740234375 724 468.208120429 724 414.540039062 c 258
 724 -0.16015625 l 257
 587.599609375 -0.16015625 l 257
 587.599609375 398.040039062 l 262
 587.599609375 421.8496975 576.72804443 437.639648438 541.399414062 437.639648438 c 257
EndSplineSet
EndChar

StartChar: uni00B5
Encoding: 181 181 152
GlifName: mu
Width: 503
VWidth: 0
GlyphClass: 2
Flags: MW
LayerCount: 2
Back
SplineSet
48 0 m 261xb3
 48 321 l 261
 48 356 l 261
 48 698 l 261xb5
 172 698 l 261
 172 356 l 261
 172 326 l 262xb3
 172 323 178 300 209 300 c 262
 214 300 l 261
 214 179 l 261xb5
 209 179 l 262
 196 179 184 180 172 183 c 261
 172 0 l 261
 48 0 l 261xb3
256 179 m 261
 256 300 l 261
 261 300 l 262
 292 300 298 324 298 326 c 262
 298 698 l 261x31
 298 700 l 261x29
 422 700 l 261x29
 422 698 l 261
 422 328 l 262
 422 325 428 302 459 302 c 262
 464 302 l 261
 464 181 l 261
 459 181 l 262
 419 181 386 194 361 213 c 261
 335 193 302 179 261 179 c 262
 256 179 l 261
EndSplineSet
Fore
SplineSet
48 0 m 257
 48 698 l 257
 172 698 l 257
 172 326 l 256
 172 313.377540354 181.285443131 300 214 300 c 257
 214 179 l 257
 198.644366641 179 185.637562077 179.590609481 172 183 c 257
 172 0 l 257
 48 0 l 257
256 179 m 257
 256 300 l 257
 288.655655082 300 298 313.360335444 298 326 c 258
 298 698 l 257
 298 700 l 257
 422 700 l 257
 422 698 l 257
 422 328 l 258
 422 319.081149407 428.285443131 302 464 302 c 257
 464 181 l 257
 420.760058519 181 387.617956535 192.770353033 361 213 c 257
 333.356443793 191.735725995 300.347158489 179 256 179 c 257
EndSplineSet
EndChar

StartChar: multiply
Encoding: 215 215 153
GlifName: multiply
Width: 697
VWidth: 0
GlyphClass: 2
Flags: HMW
LayerCount: 2
Back
Fore
SplineSet
100 578 m 257
 189 667 l 257
 349 507 l 257
 508 666 l 257
 597 577 l 257
 438 418 l 257
 597 259 l 257
 507 170 l 257
 349 328 l 257
 190 168 l 257
 101 257 l 257
 260 417 l 257
 100 578 l 257
EndSplineSet
EndChar

StartChar: n
Encoding: 110 110 154
GlifName: n
Width: 487
VWidth: 0
GlyphClass: 2
Flags: MW
LayerCount: 2
Back
Fore
SplineSet
37.599609375 -0.16015625 m 257
 37.599609375 414.540039062 l 258
 37.599609375 470.752546219 99.2895403436 570.740234375 220.200195312 570.740234375 c 257
 220.200195312 437.639648438 l 257
 184.278478446 437.639648438 174 416.444876926 174 399.040039062 c 258
 174 -0.16015625 l 257
 37.599609375 -0.16015625 l 257
266.399414062 437.639648438 m 257
 266.399414062 570.740234375 l 257
 387.307551489 570.740234375 449 467.505590286 449 414.540039062 c 258
 449 -0.16015625 l 257
 312.599609375 -0.16015625 l 257
 312.599609375 399.040039062 l 258
 312.599609375 417.826984544 301.348474683 437.639648438 266.399414062 437.639648438 c 257
EndSplineSet
EndChar

StartChar: nine
Encoding: 57 57 155
GlifName: nine
Width: 505
VWidth: 0
GlyphClass: 2
Flags: MW
LayerCount: 2
Back
Fore
SplineSet
53.7421875 105.46484375 m 1
 83.66796875 45.3017578125 137.9140625 -1 219 -1 c 261
 219 129 l 261
 197.665039062 130 171.422851562 147.665039062 160.037109375 177.182617188 c 5
 53.7421875 105.46484375 l 1
219 570 m 257
 180.838867188 560.107421875 161.848632812 523.70703125 161.848632812 487.243164062 c 0
 161.848632812 450.662109375 180.959960938 414.016601562 219 404 c 257
 219 274 l 257
 95 274 30 370 30 488 c 256
 30 613 118 700 219 700 c 257
 219 570 l 257
273 274 m 1
 273 320 273 404 273 404 c 257
 311.040039062 414.016601562 330.151367188 450.662109375 330.151367188 487.243164062 c 0
 330.151367188 523.708007812 311.161132812 560.107421875 273 570 c 257
 273 700 l 257
 448 700 475 513 475 341 c 256
 475 224 467 -1 273 -1 c 261
 273 129 l 261
 346 134 340 237 340 287 c 261
 323 279 293 274 273 274 c 1
EndSplineSet
EndChar

StartChar: numbersign
Encoding: 35 35 157
GlifName: numbersign
Width: 753
VWidth: 0
GlyphClass: 2
Flags: MW
LayerCount: 2
Back
Fore
SplineSet
27.638671875 176 m 257
 52.638671875 297 l 257
 189.638671875 297 l 257
 207.638671875 404 l 257
 61.638671875 404 l 257
 83.638671875 525 l 257
 229.638671875 525 l 257
 256.638671875 682 l 257
 377.638671875 682 l 257
 349.638671875 524 l 257
 455.638671875 524 l 257
 482.638671875 682 l 257
 603.638671875 682 l 257
 575.638671875 524 l 257
 713.638671875 524 l 257
 694.638671875 403 l 257
 554.638671875 404 l 257
 535.638671875 296 l 257
 678.638671875 296 l 257
 660.638671875 175 l 257
 514.638671875 176 l 257
 487.638671875 22 l 257
 367.638671875 22 l 257
 393.638671875 176 l 257
 288.638671875 176 l 257
 261.638671875 22 l 257
 140.638671875 22 l 257
 167.638671875 176 l 257
 27.638671875 176 l 257
309.638671875 297 m 257
 415.638671875 296 l 257
 433.638671875 404 l 257
 328.638671875 404 l 257
 309.638671875 297 l 257
EndSplineSet
Colour: ff0000
EndChar

StartChar: o
Encoding: 111 111 158
GlifName: o
Width: 476
VWidth: 0
GlyphClass: 2
Flags: MW
LayerCount: 2
Back
Fore
SplineSet
38 155.139648438 m 258
 37.599609375 416 l 258
 37.599609375 469.626953125 96.470703125 570 218 570 c 257
 218 440.200195312 l 257
 178.501953125 440.200195312 169.599609375 416.920898438 169.599609375 401.700195312 c 258
 170 169.440429688 l 258
 170.042776051 144.626772726 181.700299262 128.740234375 218.400390625 128.740234375 c 257
 218.400390625 -1.0595703125 l 257
 95.7329057738 -1.0595703125 38.0807449169 102.533153417 38 155.139648438 c 258
263.5 -1.0595703125 m 257
 263.5 128.740234375 l 257
 301.037027921 128.740234375 309.726690078 151.725480831 309.700195312 167.240234375 c 258
 309.299804688 401.700195312 l 258
 309.299804688 424.3515625 299.666992188 440.200195312 263.099609375 440.200195312 c 257
 263.099609375 570 l 257
 380.357421875 570 438 469.727539062 438 416 c 258
 438.400390625 155.139648438 l 258
 438.482868426 101.404154177 381.903826413 -1.0595703125 263.5 -1.0595703125 c 257
EndSplineSet
EndChar

StartChar: oe
Encoding: 300 339 162
GlifName: oe
Width: 671
VWidth: 0
GlyphClass: 2
Flags: MW
LayerCount: 2
Back
Fore
SplineSet
26 141 m 258
 26 376 l 258
 26 421 77 516 184 516 c 258
 190 516 l 257
 190 398 l 257
 184 398 l 258
 151 398 146 374 146 373 c 258
 146 142 l 258
 146 139 154 113 184 113 c 258
 190 113 l 257
 190 -1 l 257
 184 -1 l 258
 76 -1 26 97 26 141 c 258
231 -1 m 257
 231 113 l 257
 237 113 l 258
 268 114 273 138 273 140 c 258
 273 372 l 258
 273 375 267 398 237 398 c 258
 231 398 l 257
 231 516 l 257
 237 516 l 258
 277 516 309 502 333 482 c 257
 358 502 390 516 429 516 c 258
 434 516 l 257
 434 400 l 257
 431 400 l 258
 402 400 395 380 395 369 c 258
 395 324 l 257
 530 324 l 257
 530 369 l 258
 530 396 507 402 487 402 c 258
 483 402 l 257
 483 516 l 257
 489 516 l 258
 559 516 644 450 644 378 c 258
 644 208 l 257
 395 208 l 257
 395 141 l 258
 395 138 402 109 430 108 c 258
 489 108 l 258
 519 108 541 132 545 153 c 258
 546 157 l 257
 645 120 l 257
 644 118 l 257
 629 54 559 0 489 0 c 258
 430 0 l 258
 390 0 359 14 334 34 c 257
 310 14 277 -1 237 -1 c 258
 231 -1 l 257
EndSplineSet
EndChar

StartChar: one
Encoding: 49 49 164
GlifName: one
Width: 277
VWidth: 0
GlyphClass: 2
Flags: HMW
LayerCount: 2
Back
Fore
SplineSet
30 514 m 257
 30 640 l 257
 106 700 l 257
 247 700 l 257
 247 0 l 257
 106 0 l 257
 106 514 l 257
 30 514 l 257
EndSplineSet
EndChar

StartChar: onehalf
Encoding: 189 189 165
GlifName: onehalf
Width: 581
VWidth: 0
GlyphClass: 2
Flags: MW
LayerCount: 2
Back
Fore
SplineSet
26 -2 m 257
 458 702 l 257
 534 702 l 257
 109 -2 l 257
 26 -2 l 257
76 567 m 257
 76 671 l 257
 114 702 l 257
 182 702 l 257
 182 349 l 257
 114 349 l 257
 114 597 l 257
 76 567 l 257
337 261 m 257
 338 263 l 257
 343 306 374 347 422 353 c 257
 424 354 l 257
 424 290 l 257
 424 288 l 257
 422 288 l 258
 420 287 400 278 400 250 c 258
 400 248 l 257
 337 261 l 257
346 -1 m 257
 346 65 l 257
 551 65 l 257
 551 -1 l 257
 346 -1 l 257
348 92 m 257
 349 94 l 258
 379 156 429 184 444 196 c 256
 467 215 490 220 490 251 c 256
 490 275 476 287 449 288 c 258
 448 288 l 257
 448 354 l 257
 453 354 l 258
 531 354 553 290 554 251 c 256
 554 197 529 180 499 159 c 256
 464 134 445 119 428 93 c 257
 427 92 l 257
 348 92 l 257
EndSplineSet
EndChar

StartChar: onequarter
Encoding: 301 188 166
GlifName: onequarter
Width: 560
VWidth: 0
GlyphClass: 2
Flags: MW
LayerCount: 2
Back
Fore
SplineSet
26 -2 m 257
 458 702 l 257
 534 702 l 257
 109 -2 l 257
 26 -2 l 257
75 567 m 257
 75 671 l 257
 114 702 l 257
 181 702 l 257
 181 349 l 257
 113 349 l 257
 113 597 l 257
 75 567 l 257
270 71 m 257
 270 137 l 257
 368 305 l 257
 368 175 l 257
 346 137 l 257
 368 137 l 257
 368 71 l 257
 270 71 l 257
393 -1 m 257
 393 352 l 257
 461 352 l 257
 461 137 l 257
 488 137 l 257
 488 71 l 257
 461 71 l 257
 461 -1 l 257
 393 -1 l 257
EndSplineSet
EndChar

StartChar: ordfeminine
Encoding: 302 170 167
GlifName: ordfeminine
Width: 248
VWidth: 0
GlyphClass: 2
Flags: HMW
LayerCount: 2
Back
Fore
SplineSet
19 325 m 261
 19 393 l 261
 225 393 l 257
 225 325 l 257
 19 325 l 261
EndSplineSet
Refer: 65 97 N 0.5 0 0 0.5 1.8999 418.895 2
EndChar

StartChar: ordmasculine
Encoding: 303 186 168
GlifName: ordmasculine
Width: 230
VWidth: 0
GlyphClass: 2
Flags: HMW
LayerCount: 2
Back
Fore
SplineSet
26 361 m 257
 26 432 l 257
 204 432 l 257
 204 361 l 257
 26 361 l 257
EndSplineSet
Refer: 158 111 S 0.45 0 0 0.45 5.01011 450.81 2
EndChar

StartChar: oslash
Encoding: 304 248 169
GlifName: oslash
Width: 498
VWidth: 0
GlyphClass: 2
Flags: MW
LayerCount: 2
Back
Fore
SplineSet
0 82 m 257
 67 143 l 257
 67 153 l 4
 67 376 l 258
 67 424.751528086 120.518824608 516 231 516 c 257
 231 398 l 257
 195.092445634 398 187 376.836399634 187 363 c 258
 187 253 l 257
 314 370 l 257
 311.561073341 387.07248661 301.221661176 398 272 398 c 257
 272 516 l 257
 334.316497346 516 376.384301853 488.356226465 402 451 c 257
 445 490 l 257
 498 430 l 257
 431 369 l 257
 431 358 l 0
 431 141 l 258
 431 92.1497684781 379.640067573 -1 272 -1 c 257
 272 117 l 257
 306.124636793 117 314 137.896779178 314 152 c 258
 314 261 l 257
 188 145 l 257
 190.40005136 126.999614798 202.787375189 117 231 117 c 257
 231 -1 l 257
 166.756683084 -1 124.65583814 26.7480601291 98 63 c 257
 53 22 l 257
 0 82 l 257
EndSplineSet
EndChar

StartChar: p
Encoding: 112 112 171
GlifName: p
Width: 481
VWidth: 9
GlyphClass: 2
Flags: MW
LayerCount: 2
Back
Fore
SplineSet
304.299804688 412.69921875 m 257
 304.299804688 414.899414062 298.799804688 440.19921875 263.599609375 440.19921875 c 258
 229.5 440.19921875 l 257
 229.5 570 l 257
 263.599609375 570 l 258
 381.299804688 570 435.594726562 464.498046875 435.5 415 c 258
 435.5 155.201171875 l 258
 435.594726562 105.703125 381.299804688 0 263.599609375 0 c 258
 229.5 0 l 257
 229.5 129.80078125 l 257
 263.599609375 129.80078125 l 258
 298.799804688 129.80078125 304.299804688 155.100585938 304.299804688 157.30078125 c 257
 304.299804688 412.69921875 l 257
38.5 -199 m 257
 38.5 570 l 257
 179.5 570 l 257
 179.5 -199 l 257
 38.5 -199 l 257
EndSplineSet
EndChar

StartChar: paragraph
Encoding: 306 182 172
GlifName: paragraph
Width: 481
VWidth: 0
GlyphClass: 2
Flags: HMW
LayerCount: 2
Back
Fore
SplineSet
35 517 m 256
 35 617 102 705 204 705 c 256
 232 705 259 705 287 705 c 257
 287 -5 l 257
 204 -5 l 257
 204 329 l 257
 100 329 35 403 35 517 c 256
344 -5 m 257
 344 705 l 257
 427 705 l 257
 427 -5 l 257
 344 -5 l 257
EndSplineSet
EndChar

StartChar: parenleft
Encoding: 40 40 173
GlifName: parenleft
Width: 223
VWidth: 0
GlyphClass: 2
Flags: HMW
LayerCount: 2
Back
Fore
SplineSet
40 189 m 261
 40 510 l 261
 40 652 103 696 202 735 c 261
 203 648 l 261
 164 625 144 593 143 521 c 262
 143 208 l 262
 143 206 143 204 143 202 c 260
 143 104 168 73 203 51 c 261
 203 -37 l 261
 61 22 40 93 40 189 c 261
EndSplineSet
EndChar

StartChar: parenright
Encoding: 41 41 174
GlifName: parenright
Width: 223
VWidth: 0
GlyphClass: 2
Flags: MW
LayerCount: 2
Back
Fore
SplineSet
20 -37 m 261
 20 51 l 261
 55 73 80 104 80 202 c 262
 80 521 l 261
 79 593 59 625 20 648 c 261
 21 735 l 261
 120 696 183 652 183 510 c 261
 183 189 l 261
 183 93 162 22 20 -37 c 261
EndSplineSet
EndChar

StartChar: period
Encoding: 46 46 175
GlifName: period
Width: 180
VWidth: 0
GlyphClass: 2
Flags: HMW
LayerCount: 2
Back
Fore
SplineSet
15 53 m 256
 15 95 48 129 90 129 c 256
 132 129 165 95 165 53 c 256
 165 11 132 -22 90 -22 c 256
 48 -22 15 11 15 53 c 256
EndSplineSet
EndChar

StartChar: perthousand
Encoding: 307 8240 177
GlifName: perthousand
Width: 897
VWidth: 0
GlyphClass: 2
Flags: MW
LayerCount: 2
Back
Fore
SplineSet
26 528 m 256
 26 656 75 699 121 702 c 257
 122 703 l 257
 122 637 l 257
 121 637 l 257
 96 631 94 583 94 551 c 258
 94 522 l 258
 94 476 95 421 121 415 c 257
 122 415 l 257
 122 350 l 257
 120 351 l 257
 86 353 26 378 26 528 c 256
67 0 m 257
 497 700 l 257
 570 700 l 257
 147 0 l 257
 67 0 l 257
150 350 m 257
 150 415 l 257
 151 415 l 257
 177 421 178 476 178 522 c 258
 178 551 l 258
 178 583 176 631 151 637 c 257
 150 637 l 257
 150 703 l 257
 151 702 l 257
 197 699 246 657 246 528 c 256
 246 378 186 353 152 351 c 257
 150 350 l 257
393 178 m 256
 393 306 442 349 488 352 c 258
 490 352 l 257
 490 287 l 257
 488 287 l 257
 463 281 461 233 461 201 c 258
 461 171 l 258
 461 125 462 71 488 65 c 257
 489 65 l 257
 489 0 l 257
 487 0 l 258
 453 2 393 28 393 178 c 256
516 287 m 257
 516 352 l 257
 518 352 l 258
 564 349 614 307 614 178 c 256
 614 28 553 2 519 0 c 258
 517 0 l 257
 517 65 l 257
 518 65 l 257
 544 71 546 125 546 171 c 258
 546 201 l 258
 546 233 543 281 518 287 c 257
 516 287 l 257
651 178 m 256
 651 306 700 349 746 352 c 258
 748 352 l 257
 748 287 l 257
 746 287 l 257
 721 281 719 233 719 201 c 258
 719 171 l 258
 719 125 720 71 746 65 c 257
 747 65 l 257
 747 0 l 257
 745 0 l 258
 711 2 651 28 651 178 c 256
774 287 m 257
 774 352 l 257
 776 352 l 258
 822 349 872 307 872 178 c 256
 872 28 811 2 777 0 c 258
 775 0 l 257
 775 65 l 257
 776 65 l 257
 802 71 804 125 804 171 c 258
 804 201 l 258
 804 233 801 281 776 287 c 257
 774 287 l 257
EndSplineSet
EndChar

StartChar: plus
Encoding: 43 43 178
GlifName: plus
Width: 405
VWidth: 0
GlyphClass: 2
Flags: HMW
LayerCount: 2
Back
Fore
SplineSet
15 230 m 257
 15 357 l 257
 138 357 l 257
 138 498 l 257
 265 498 l 257
 265 357 l 257
 390 357 l 257
 390 230 l 257
 265 230 l 257
 265 87 l 257
 138 87 l 257
 138 230 l 257
 15 230 l 257
EndSplineSet
EndChar

StartChar: plusminus
Encoding: 308 177 179
GlifName: plusminus
Width: 427
VWidth: 0
GlyphClass: 2
Flags: MW
LayerCount: 2
Back
Fore
SplineSet
26 40 m 257
 26 167 l 257
 402 167 l 257
 402 40 l 257
 26 40 l 257
EndSplineSet
Refer: 178 43 S 1 0 0 1 10 161 2
EndChar

StartChar: q
Encoding: 113 113 180
GlifName: q
Width: 476
VWidth: 9
GlyphClass: 2
Flags: HMW
LayerCount: 2
Back
Fore
SplineSet
171.200195312 412.69921875 m 257
 171.200195312 414.899414062 176.700195312 440.19921875 211.900390625 440.19921875 c 258
 246 440.19921875 l 257
 246 570 l 257
 211.900390625 570 l 258
 94.2001953125 570 39.9052734375 464.498046875 40 415 c 258
 40 155.201171875 l 258
 39.9052734375 105.703125 94.2001953125 0 211.900390625 0 c 258
 246 0 l 257
 246 129.80078125 l 257
 211.900390625 129.80078125 l 258
 176.700195312 129.80078125 171.200195312 155.100585938 171.200195312 157.30078125 c 257
 171.200195312 412.69921875 l 257
296 -199 m 257
 296 570 l 257
 437 570 l 257
 437 -199 l 257
 296 -199 l 257
EndSplineSet
EndChar

StartChar: question
Encoding: 63 63 181
GlifName: question
Width: 460
VWidth: 0
GlyphClass: 2
Flags: MW
LayerCount: 2
Back
Fore
SplineSet
30 611 m 257
 60 649 110 703 218 703 c 256
 346 703 426 620 430 491 c 257
 430 294.686523438 263 276 263 276 c 261
 263 166 l 257
 134 166 l 257
 134 386 l 257
 251 388 302 400 302 493 c 256
 302 545 257 575 210 575 c 256
 167 575 133 554 112 526 c 257
 30 611 l 257
122 53 m 256
 122 95 155 129 197 129 c 256
 239 129 273 95 273 53 c 256
 273 11 239 -22 197 -22 c 256
 155 -22 122 11 122 53 c 256
EndSplineSet
EndChar

StartChar: quotedbl
Encoding: 34 34 183
GlifName: quotedbl
Width: 392
VWidth: 0
GlyphClass: 2
Flags: HMW
LayerCount: 2
Back
Fore
SplineSet
43 465 m 257
 43 736 l 257
 170 736 l 257
 170 465 l 257
 43 465 l 257
223 465 m 257
 223 736 l 257
 350 736 l 257
 350 465 l 257
 223 465 l 257
EndSplineSet
EndChar

StartChar: quotedbl.alt
Encoding: 310 -1 184
GlifName: quotedbl.alt
Width: 359
VWidth: 0
GlyphClass: 2
Flags: MW
LayerCount: 2
Back
Fore
SplineSet
26 476 m 257
 26 700 l 257
 153 700 l 257
 153 476 l 257
 26 476 l 257
206 476 m 257
 206 700 l 257
 333 700 l 257
 333 476 l 257
 206 476 l 257
EndSplineSet
EndChar

StartChar: quotesingle
Encoding: 39 39 191
GlifName: quotesingle
Width: 212
VWidth: 0
GlyphClass: 2
Flags: HMW
LayerCount: 2
Back
Fore
SplineSet
43 465 m 257
 43 736 l 257
 170 736 l 257
 170 465 l 257
 43 465 l 257
EndSplineSet
EndChar

StartChar: r
Encoding: 114 114 192
GlifName: r
Width: 361
VWidth: 0
GlyphClass: 2
Flags: HMW
LayerCount: 2
Back
Fore
SplineSet
42 0 m 257
 42 570 l 257
 178 570 l 257
 178 507 l 261
 201.100585938 536.700195312 254.200195312 574.58984375 314.700195312 574.58984375 c 258
 351 574.58984375 l 257
 320.200195312 441.490234375 l 257
 246.5 440.389648438 178.299804688 371.08984375 178.299804688 305.08984375 c 258
 178.299804688 -0.009765625 l 257
 42 0 l 257
EndSplineSet
EndChar

StartChar: registered
Encoding: 317 174 193
GlifName: registered
Width: 404
VWidth: 0
GlyphClass: 2
Flags: MW
LayerCount: 2
Back
Fore
SplineSet
30 525 m 256
 30 650.198699354 133.423294556 703 195 703 c 261
 195 662 l 257
 136 662 70 609 70 526 c 256
 71 457 126 399 191 396 c 257
 192 354 l 257
 109.7781729 355.015084285 30 432.636480259 30 525 c 256
151 430 m 257
 151 627 l 257
 190 627 l 257
 190 430 l 257
 151 430 l 257
206 511 m 257
 206 547 l 257
 210 547 l 258
 227 547 234 557 234 568 c 256
 234 582 224 591 210 591 c 258
 206 591 l 257
 206 628 l 257
 248 628 270 604 270 570 c 256
 270 551 264 538 251 530 c 257
 261 522 269 506 270 492 c 258
 270 431 l 257
 235 431 l 257
 235 481 l 258
 235 504 226 511 206 511 c 257
211 354 m 257
 211 396 l 257
 275.700078151 398.986157453 334 456.640989703 334 527 c 256
 334 608 270 662 211 662 c 257
 211 703 l 257
 277 702 374 641 374 528 c 256
 374 424.559327272 291.107018123 357.121052654 211 354 c 257
EndSplineSet
EndChar

StartChar: ring
Encoding: 318 730 194
GlifName: ring
Width: 244
VWidth: 0
GlyphClass: 2
Flags: MW
LayerCount: 2
Back
Fore
SplineSet
26 526 m 256
 26 579 69 622 122 622 c 256
 175 622 218 579 218 526 c 256
 218 473 175 430 122 430 c 256
 69 430 26 473 26 526 c 256
90 526 m 256
 90 508 104 494 122 494 c 256
 140 494 154 508 154 526 c 256
 154 544 140 558 122 558 c 256
 104 558 90 544 90 526 c 256
EndSplineSet
Validated: 1
EndChar

StartChar: s
Encoding: 115 115 195
GlifName: s
Width: 454
VWidth: 0
GlyphClass: 2
Flags: MW
LayerCount: 2
Back
Fore
SplineSet
20.400390625 149.790039062 m 257
 143.600585938 172.889648438 l 257
 143.600585938 142.792265899 172.816944155 122.148861407 199.700195312 121.190429688 c 257
 199.700195312 -5.3095703125 l 257
 71.6771601091 -5.3095703125 19.988672825 78.0256181461 20.400390625 149.790039062 c 257
25.900390625 414.290039062 m 260
 25.900390625 528.334960938 135.72265625 574.889648438 197.5 574.889648438 c 261
 197.5 450.790039062 l 261
 152.196289062 450.790039062 149.100585938 425.381835938 149.100585938 414.389648438 c 260
 149.100585938 391.862304688 165.600585938 359.58119238 320.700195312 325.790039062 c 256
 377.900390625 314.790039062 434 267.490234375 434 176.190429688 c 256
 434 60.9608757101 349.340544025 -5.3095703125 244.799804688 -5.3095703125 c 257
 244.799804688 121.08984375 l 257
 263.564787455 121.08984375 305.299804688 132.129436612 305.299804688 168.490234375 c 256
 305.299804688 217.990234375 182.100585938 226.790039062 119.400390625 255.389648438 c 256
 65.5 281.790039062 25.900390625 321.889648438 25.900390625 414.290039062 c 260
242.600585938 450.58984375 m 261
 243.700195312 574.889648438 l 261
 350.529296875 574.889648438 424.100585938 491.71484375 424.100585938 417.58984375 c 261
 300.900390625 396.690429688 l 261
 300.900390625 445.650390625 253.176757812 450.58984375 242.600585938 450.58984375 c 261
EndSplineSet
EndChar

StartChar: section
Encoding: 167 167 197
GlifName: section
Width: 603
VWidth: 0
GlyphClass: 2
Flags: MW
LayerCount: 2
Back
Fore
SplineSet
54 351 m 256
 54 413 82 465 126 499 c 257
 119 519 116 543 116 571 c 256
 116 710 225 759 293 759 c 258
 405 759 l 257
 405 627 l 257
 301 627 l 258
 268 627 247 606 247 576 c 256
 247 555 258 540 274 527 c 257
 274 372 l 257
 261 377 249 381 239 386 c 256
 230 391 221 395 212 400 c 257
 202 392 195 380 195 357 c 256
 195 314 232 290 274 272 c 257
 274 125 l 257
 243 138 209 150 182 166 c 256
 121 202 54 249 54 351 c 256
198 -4 m 257
 302 -4 l 258
 335 -4 356 17 356 47 c 256
 356 68 345 84 328 97 c 257
 328 252 l 257
 341 247 353 242 364 237 c 256
 373 232 382 228 391 223 c 257
 401 231 408 243 408 266 c 256
 408 310 371 333 328 351 c 257
 328 498 l 257
 359 485 393 473 421 457 c 256
 482 421 549 374 549 272 c 256
 549 210 521 158 477 124 c 257
 484 104 487 80 487 52 c 256
 487 -87 378 -136 310 -136 c 258
 198 -136 l 257
 198 -4 l 257
EndSplineSet
EndChar

StartChar: semicolon
Encoding: 59 59 198
GlifName: semicolon
Width: 291
VWidth: 0
GlyphClass: 2
Flags: MW
LayerCount: 2
Back
Fore
SplineSet
50 -23 m 257
 87 129 l 257
 214 129 l 257
 177 -23 l 257
 50 -23 l 257
91 360 m 256
 91 402 124 436 166 436 c 256
 208 436 241 402 241 360 c 256
 241 318 208 285 166 285 c 256
 124 285 91 318 91 360 c 256
EndSplineSet
EndChar

StartChar: seven
Encoding: 55 55 199
GlifName: seven
Width: 449
VWidth: 0
GlyphClass: 2
Flags: HMW
LayerCount: 2
Back
Fore
SplineSet
429 570 m 257
 429 700 l 257
 30 700 l 257
 30 570 l 257
 429 570 l 257
143 0 m 257
 143 198 208 388 276 515 c 257
 419 515 l 257
 337 356 283 174 283 0 c 257
 143 0 l 257
EndSplineSet
EndChar

StartChar: six
Encoding: 54 54 200
GlifName: six
Width: 505
VWidth: 0
GlyphClass: 2
Flags: HMW
LayerCount: 2
Back
Fore
SplineSet
451.2578125 593.536132812 m 1
 421.33203125 653.698242188 357.0859375 700 286 700 c 257
 286 570 l 257
 300.334960938 570 334.577148438 559.334960938 344.962890625 521.818359375 c 1
 451.2578125 593.536132812 l 1
286 129 m 257
 324.161132812 138.892578125 343.151367188 175.29296875 343.151367188 211.7578125 c 0
 343.151367188 248.337890625 324.040039062 284.984375 286 295 c 257
 286 425 l 257
 410 425 475 329 475 211 c 256
 475 86 387 -1 286 -1 c 257
 286 129 l 257
232 425 m 1
 232 379 232 295 232 295 c 257
 193.959960938 284.984375 174.848632812 248.337890625 174.848632812 211.7578125 c 0
 174.848632812 175.29296875 193.838867188 138.892578125 232 129 c 257
 232 -1 l 257
 57 -1 30 186 30 358 c 256
 30 475 48 700 232 700 c 257
 232 570 l 257
 166 558 165 462 165 412 c 257
 182 420 212 425 232 425 c 1
EndSplineSet
EndChar

StartChar: slash
Encoding: 47 47 201
GlifName: slash
Width: 401
VWidth: 0
GlyphClass: 2
Flags: MW
LayerCount: 2
Back
Fore
SplineSet
50 -23 m 257
 225 716 l 257
 351 716 l 257
 177 -23 l 257
 50 -23 l 257
EndSplineSet
Validated: 1
EndChar

StartChar: sterling
Encoding: 163 163 203
GlifName: sterling
Width: 460
VWidth: 0
GlyphClass: 2
Flags: MW
LayerCount: 2
Back
Fore
SplineSet
20 288 m 257
 20 395 l 257
 76 395 l 257
 76 514 l 258
 76 617 131 705 261 705 c 256
 262 705 262 705 263 705 c 256
 291 705 315 700 336 691 c 256
 394 668 429 618 440 570 c 257
 341 520 l 257
 331 551 311 584 267 584 c 256
 235 584 209 568 209 517 c 258
 209 396 l 257
 348 396 l 257
 348 289 l 257
 208 289 l 257
 208 108 l 257
 432 108 l 257
 432 0 l 257
 76 0 l 257
 76 288 l 257
 20 288 l 257
EndSplineSet
EndChar

StartChar: t
Encoding: 116 116 204
GlifName: t
Width: 324
VWidth: -9
GlyphClass: 2
Flags: HMW
LayerCount: 2
Back
Fore
SplineSet
14 441 m 257
 14 570 l 257
 84 570 l 257
 83.7998046875 716 l 257
 218 716 l 257
 218 570 l 257
 284 570 l 257
 284 440.200195312 l 257
 218 440.200195312 l 257
 218.30078125 174.900390625 l 258
 218.31824128 159.500020262 223.80078125 137.5 254.600585938 137.5 c 258
 284.30078125 137.5 l 257
 314 0 l 257
 253.5 0 l 258
 119.30078125 0 84.145158415 72.5996275239 84.1005859375 184.799804688 c 258
 84 441 l 257
 14 441 l 257
EndSplineSet
EndChar

StartChar: thorn
Encoding: 320 254 205
GlifName: thorn
Width: 422
VWidth: 0
GlyphClass: 2
Flags: HMW
LayerCount: 2
Back
Fore
SplineSet
30 -182 m 257
 30 700 l 257
 155 700 l 257
 155 -182 l 257
 30 -182 l 257
196 401 m 261
 196 519 l 261
 228 519 l 262
 335 519 396 434 396 378 c 262
 396 139 l 258
 396 86 345 0 232 0 c 258
 203 0 l 257
 203 118 l 257
 234 118 l 258
 271 119 276 134 276 143 c 258
 276 375 l 262
 276 388 258 401 228 401 c 262
 196 401 l 261
EndSplineSet
EndChar

StartChar: three
Encoding: 51 51 206
GlifName: three
Width: 502
VWidth: 0
GlyphClass: 2
Flags: HMW
LayerCount: 2
Back
Fore
SplineSet
213 285 m 17
 321 285 342 248.215820312 342 200 c 256
 342 149.69140625 301.028320312 133 268 130 c 257
 268 0 l 257
 349.454101562 0 472 50.8203125 472 199 c 256
 472 284 433 331 405 350 c 257
 433 369 472 416 472 501 c 256
 472 649.1796875 349.454101562 700 268 700 c 257
 268 570 l 257
 301.028320312 567 342 550.30859375 342 500 c 256
 342 452.784179688 320.979492188 415 213 415 c 9
 213 285 l 17
30 179 m 257
 30 88 115 0 213 0 c 257
 213 130 l 257
 196 130 151 145 151 202 c 257
 30 179 l 257
30 521 m 257
 30 612 115 700 213 700 c 257
 213 570 l 257
 196 568 151 555 151 498 c 257
 30 521 l 257
EndSplineSet
EndChar

StartChar: threequarters
Encoding: 321 190 207
GlifName: threequarters
Width: 584
VWidth: 0
GlyphClass: 2
Flags: MW
LayerCount: 2
Back
Fore
SplineSet
26 399 m 257
 82 432 l 257
 83 431 l 258
 90 421 99 415 113 414 c 258
 114 414 l 257
 114 348 l 257
 113 348 l 258
 74 348 44 364 27 398 c 257
 26 399 l 257
26 649 m 257
 27 651 l 258
 44 679 74 700 114 700 c 257
 114 635 l 257
 113 635 l 258
 99 634 90 628 83 618 c 258
 82 616 l 257
 26 649 l 257
50 -2 m 257
 482 702 l 257
 558 702 l 257
 133 -2 l 257
 50 -2 l 257
108 492 m 257
 108 557 l 257
 109 557 l 258
 169 557 177 571 177 600 c 256
 177 626 157 636 143 636 c 258
 140 636 l 257
 140 701 l 257
 141 700 l 257
 209 698 243 642 243 604 c 256
 243 557 229 534 214 525 c 257
 229 514 245 491 245 450 c 256
 245 387 185 348 144 348 c 258
 141 348 l 257
 141 412 l 257
 142 412 l 258
 163 412 177 431 177 450 c 256
 177 479 167 492 108 492 c 257
294 71 m 257
 294 137 l 257
 392 305 l 257
 392 175 l 257
 370 137 l 257
 392 137 l 257
 392 71 l 257
 294 71 l 257
417 -1 m 257
 417 352 l 257
 485 352 l 257
 485 137 l 257
 512 137 l 257
 512 71 l 257
 485 71 l 257
 485 -1 l 257
 417 -1 l 257
EndSplineSet
EndChar

StartChar: tilde
Encoding: 322 732 208
GlifName: tilde
Width: 333
VWidth: 0
GlyphClass: 2
Flags: MW
LayerCount: 2
Back
Fore
SplineSet
26 104 m 257
 26 206 l 257
 54 222 77 228 96 228 c 256
 147 228 176 187 227 187 c 256
 249 187 274 195 307 215 c 257
 307 114 l 257
 273 93 246 86 223 86 c 256
 170 86 140 126 92 126 c 256
 74 126 52 120 26 104 c 257
EndSplineSet
EndChar

StartChar: two
Encoding: 50 50 209
GlifName: two
Width: 495
VWidth: 0
GlyphClass: 2
Flags: MW
LayerCount: 2
Back
Fore
SplineSet
30 521 m 261
 30 612 115 700 213 700 c 261
 213 570 l 261
 196 570 151 555 151 498 c 261
 30 521 l 261
51 0 m 257
 51 138 l 257
 455 138 l 257
 455 0 l 257
 51 0 l 257
51 190 m 257
 51 277.827148438 154 332 215 379 c 0
 267.145147576 419.177408788 335 456.5 335 503 c 256
 335 555 294 570 268 570 c 257
 268 700 l 257
 406.495117188 700 465 604.615234375 465 504 c 256
 465 423.125 432.036150026 377.158402225 343 313 c 0
 275 264 209.401367188 234.983398438 209 190 c 257
 51 190 l 257
EndSplineSet
EndChar

StartChar: u
Encoding: 117 117 210
GlifName: u
Width: 487
VWidth: 0
GlyphClass: 2
Flags: MW
LayerCount: 2
Back
Fore
SplineSet
37.599609375 151.040039062 m 258
 37.599609375 569.740234375 l 257
 174 569.740234375 l 257
 174 166.540039062 l 258
 174 147.753093582 184.213682748 127.940429688 220.200195312 127.940429688 c 257
 220.200195312 -5.16015625 l 257
 99.2920578855 -5.16015625 37.599609375 94.8031340207 37.599609375 151.040039062 c 258
266.399414062 -5.16015625 m 257
 266.399414062 127.940429688 l 257
 302.321130929 127.940429688 312.599609375 149.1352012 312.599609375 166.540039062 c 258
 312.599609375 569.740234375 l 257
 449 569.740234375 l 257
 449 151.040039062 l 258
 449 98.0996740356 387.310069031 -5.16015625 266.399414062 -5.16015625 c 257
EndSplineSet
EndChar

StartChar: underscore
Encoding: 95 95 215
GlifName: underscore
Width: 510
VWidth: 0
GlyphClass: 2
Flags: MW
LayerCount: 2
Back
Fore
SplineSet
30 -98 m 257
 480 -98 l 257
 480 -205 l 257
 30 -205 l 257
 30 -98 l 257
EndSplineSet
EndChar

StartChar: v
Encoding: 118 118 220
GlifName: v
Width: 443
VWidth: 0
GlyphClass: 2
Flags: MW
LayerCount: 2
Back
Fore
SplineSet
7 570 m 261
 156 570 l 261
 301.599609375 137.990234375 l 261
 257.299804688 -0.009765625 l 261
 181.399414062 -0.009765625 l 261
 7 570 l 261
245.200195312 433.389648438 m 261
 287 570 l 261
 436 570 l 261
 328.799804688 228.790039062 l 261
 315.599609375 228.790039062 l 261
 245.200195312 433.389648438 l 261
EndSplineSet
EndChar

StartChar: w
Encoding: 119 119 221
GlifName: w
Width: 723
VWidth: 0
GlyphClass: 2
Flags: MW
LayerCount: 2
Back
Fore
SplineSet
7 570 m 257
 156 570 l 257
 301.599609375 137.990234375 l 257
 257.299804688 -0.009765625 l 257
 181.399414062 -0.009765625 l 257
 7 570 l 257
245.200195312 433.389648438 m 257
 287 570 l 257
 436 570 l 257
 328.799804688 228.790039062 l 257
 315.599609375 228.790039062 l 257
 245.200195312 433.389648438 l 257
287 570 m 257
 436 570 l 257
 581.599609375 137.990234375 l 257
 537.299804688 -0.009765625 l 257
 461.399414062 -0.009765625 l 257
 287 570 l 257
525.200195312 433.389648438 m 257
 567 570 l 257
 716 570 l 257
 608.799804688 228.790039062 l 257
 595.599609375 228.790039062 l 257
 525.200195312 433.389648438 l 257
EndSplineSet
EndChar

StartChar: x
Encoding: 120 120 222
GlifName: x
Width: 416
VWidth: 0
GlyphClass: 2
Flags: MW
LayerCount: 2
Back
Fore
SplineSet
7.599609375 -0.009765625 m 257
 133 288.190429688 l 257
 10 570 l 257
 147.5 570 l 257
 207.799804688 438.889648438 l 257
 266.400390625 570 l 261
 405 570 l 261
 283.700195312 288.190429688 l 257
 408 -0.009765625 l 257
 270.5 -0.009765625 l 257
 207.799804688 138.58984375 l 257
 145.099609375 -0.009765625 l 257
 7.599609375 -0.009765625 l 257
EndSplineSet
EndChar

StartChar: y
Encoding: 121 121 223
GlifName: y
Width: 429
VWidth: 9
GlyphClass: 2
Flags: HMW
LayerCount: 2
Back
Fore
SplineSet
6.900390625 569.900390625 m 257
 151 570 l 257
 284.099609375 125.600585938 l 257
 175.400390625 -199.69921875 l 261
 36.7998046875 -199.69921875 l 261
 136.700195312 127.80078125 l 257
 6.900390625 569.900390625 l 257
241.200195312 435.80078125 m 257
 283 570 l 257
 427.099609375 569.900390625 l 257
 313.799804688 232.30078125 l 257
 300.599609375 232.30078125 l 257
 241.200195312 435.80078125 l 257
EndSplineSet
EndChar

StartChar: yen
Encoding: 326 165 226
GlifName: yen
Width: 449
VWidth: 0
GlyphClass: 2
Flags: MW
LayerCount: 2
Back
Fore
SplineSet
16 299 m 1
 441 299 l 1
 441 239 l 1
 16 239 l 1
 16 299 l 1
16 409 m 1
 441 409 l 1
 441 349 l 1
 16 349 l 1
 16 409 l 1
165 0 m 261
 165 238 l 257
 35 698 l 257
 172 698 l 257
 235 485 l 257
 295 698 l 257
 432 698 l 257
 302 236 l 257
 302 0 l 257
 165 0 l 261
EndSplineSet
EndChar

StartChar: z
Encoding: 122 122 227
GlifName: z
Width: 386
VWidth: 0
GlyphClass: 2
Flags: HMW
LayerCount: 2
Back
Fore
SplineSet
30.400390625 0.08984375 m 257
 29.7001953125 130.889648438 l 257
 203.100585938 440 l 257
 30.400390625 440 l 257
 30.400390625 570 l 257
 356 570 l 257
 356.100585938 440 l 261
 187.700195312 130.889648438 l 257
 356 131 l 257
 356 0.08984375 l 257
 30.400390625 0.08984375 l 257
EndSplineSet
EndChar

StartChar: zero
Encoding: 48 48 229
GlifName: zero
Width: 499
VWidth: 0
GlyphClass: 2
Flags: HMW
LayerCount: 2
Back
Fore
SplineSet
334 361 m 256
 334 452 332 553 277 566 c 257
 277 700 l 257
 363 700 469 643 469 350 c 256
 469 57 363 0 277 0 c 257
 277 134 l 257
 332 147 334 248 334 339 c 256
 334 361 l 256
165 361 m 260
 165 452 167 553 222 566 c 261
 222 700 l 261
 136 700 30 643 30 350 c 260
 30 57 136 0 222 0 c 261
 222 134 l 261
 167 147 165 248 165 339 c 260
 165 361 l 260
EndSplineSet
EndChar

StartChar: dcroat
Encoding: 392 273 300
Width: 414
VWidth: 0
Flags: MW
LayerCount: 2
Back
Fore
SplineSet
30 141 m 258
 30 377 l 257
 31 422 79 516 180 516 c 258
 210 516 l 257
 210 398 l 257
 180 398 l 257
 153 397 148 375 148 373 c 258
 148 143 l 257
 148 141 154 118 182 118 c 258
 210 118 l 257
 210 0 l 257
 182 0 l 258
 78 0 30 97 30 141 c 258
194 539 m 1
 194 666 l 1
 258 666 l 1
 258 698 l 1
 384 698 l 1
 384 666 l 1
 448 666 l 1
 448 539 l 1
 384 539 l 1
 384 0 l 1
 258 0 l 1
 258 539 l 1
 194 539 l 1
EndSplineSet
EndChar

StartChar: uni02C9
Encoding: 400 713 309
Width: 416
VWidth: 0
Flags: MW
LayerCount: 2
Back
Fore
SplineSet
50 514 m 257
 50 596 l 257
 366 596 l 257
 366 514 l 257
 50 514 l 257
EndSplineSet
EndChar

StartChar: ogonek
Encoding: 402 731 311
Width: 219
VWidth: 0
Flags: HMW
LayerCount: 2
Back
Fore
SplineSet
106 -199 m 257
 -21 -199 -62 -116 -62 -40 c 257
 30 -40 l 257
 30 -95 70 -108 106 -108 c 257
 106 -199 l 257
EndSplineSet
EndChar

StartChar: pi
Encoding: 403 960 312
Width: 421
VWidth: 0
Flags: MW
LayerCount: 2
Back
Fore
SplineSet
-28 389 m 1
 -28 516 l 1
 452 516 l 1
 452 389 l 1
 395 389 l 1
 395 142 l 2
 395 128.336461239 402.558464242 108 438 108 c 1
 438 -4 l 1
 339.192014023 -4 281 64.2892288175 281 133 c 2
 281 389 l 1
 148 389 l 1
 148 0 l 5
 26 0 l 5
 26 389 l 1
 -28 389 l 1
EndSplineSet
EndChar

StartChar: uni2113
Encoding: 405 8467 314
Width: 196
VWidth: 0
Flags: MW
LayerCount: 2
Back
Fore
SplineSet
39 191 m 258
 39 698 l 257
 170 698 l 257
 170 191 l 257
 171 145 221 135 226 135 c 257
 226 -7 l 257
 166 -7 39 47 39 191 c 258
EndSplineSet
Colour: ff0000
EndChar

StartChar: uni2126
Encoding: 406 8486 315
Width: 432
VWidth: 0
Flags: HMW
LayerCount: 2
Back
SplineSet
59 -1 m 1
 59 62 l 1
 105.59375 62 l 1
 84.2822265625 89.98828125 74 121.046875 74 141 c 2
 74 376 l 2x78
 74 421 125 516 232 516 c 2
 238 516 l 1
 238 398 l 1
 232 398 l 2
 199 398 194 373 194 363 c 2
 194 154 l 2
 194 135 202 117 232 117 c 2
 238 117 l 1
 238 -1 l 1xb8
 59 -1 l 1
279 -1 m 1
 279 117 l 1
 285 117 l 2xb8
 316 118 321 141 321 152 c 2
 321 363 l 2
 321 380 315 398 285 398 c 2
 279 398 l 1
 279 516 l 1
 285 516 l 2
 388 516 438 421 438 376 c 2
 438 141 l 2
 438 120.692382812 428.020507812 89.7939453125 407.510742188 62 c 1
 453 62 l 1x78
 453 -1 l 1x78
 279 -1 l 1
EndSplineSet
Fore
SplineSet
25 -1 m 1
 25 62 l 1
 71.59375 62 l 1
 50.2822265625 89.98828125 40 121.046875 40 141 c 2
 40 376 l 2
 40 425.751953125 90.5185546875 516 204 516 c 1
 204 398 l 1
 168.092773438 398 160 377.8359375 160 363 c 2
 160 154 l 2
 160 131.442382812 168.63671875 117 204 117 c 1
 204 -1 l 1
 25 -1 l 1
245 -1 m 1
 245 117 l 1
 279.125 117 287 137.896484375 287 152 c 2
 287 363 l 2
 287 383.591796875 278.243164062 398 245 398 c 1
 245 516 l 1
 353.59765625 516 404 424.842773438 404 376 c 2
 404 141 l 2
 404 120.692382812 394.020507812 89.7939453125 373.510742188 62 c 1
 419 62 l 1
 419 -1 l 1
 245 -1 l 1
EndSplineSet
Colour: ff0000
EndChar

StartChar: estimated
Encoding: 407 8494 316
Width: 472
VWidth: 0
Flags: HMW
LayerCount: 2
Back
Fore
SplineSet
-3 141 m 258
 -3 377 l 258
 -3 442.71564027 82.3604959997 516 187 516 c 257
 187 400 l 257
 157.033174565 400 115 393.066966132 115 366 c 258
 115 324 l 257
 302 324 l 257
 302 366 l 258
 302 392.340570245 257.716934711 400 236 400 c 257
 236 516 l 257
 309.649283674 516 416 453.280182719 416 378 c 258
 416 212 l 257
 115 212 l 257
 115 144 l 258
 115 125.783506525 158.28311259 111 188 111 c 257
 188 0 l 257
 81.346648474 0 -3 58.3819770866 -3 141 c 258
236 0 m 257
 236 111 l 257
 274.501003545 111 311.702314322 131.809257289 318 157 c 257
 417 120 l 257
 390.803084471 55.6061689415 323.710385062 0 236 0 c 257
EndSplineSet
Colour: ff0000
EndChar

StartChar: partialdiff
Encoding: 408 8706 317
Width: 420
VWidth: 0
Flags: HMW
LayerCount: 2
Back
Fore
SplineSet
28 141 m 258
 28 376 l 258
 28 424.751528086 81.5188246079 516 192 516 c 257
 192 398 l 257
 156.092445634 398 148 370.789656672 148 353 c 258
 148 154 l 258
 148 131.442730763 158.636582651 117 192 117 c 257
 192 -1 l 257
 80.4842183772 -1 28 93.1756042126 28 141 c 258
70 647 m 257
 70 714 l 257
 290.916362591 714 392 629.788941903 392 442 c 258
 392 141 l 256
 392 92.1497684781 340.640067573 -1 233 -1 c 257
 233 117 l 257
 267.124636793 117 275 139.882033347 275 157 c 262
 275 353 l 258
 275 379.474810898 266.242819853 398 233 398 c 257
 233 516 l 257
 247.850914894 516 260.061888739 515.528575798 273 512 c 257
 273 594 182 647 70 647 c 257
EndSplineSet
Colour: ff0000
EndChar

StartChar: uni2206
Encoding: 409 8710 318
Width: 414
VWidth: 0
Flags: HMW
LayerCount: 2
Back
Fore
SplineSet
-8 0 m 257
 419 0 l 257
 238 706 l 257
 174 706 l 257
 -8 0 l 257
113 97.125 m 1
 206 459 l 257
 299 97.125 l 1
 113 97.125 l 1
EndSplineSet
Colour: ff0000
EndChar

StartChar: product
Encoding: 410 8719 319
Width: 458
VWidth: 0
Flags: HMW
LayerCount: 2
Back
Fore
SplineSet
2 598 m 1
 35 598 l 1
 35 -140 l 1
 131 -140 l 1
 131 598 l 1
 327 598 l 1
 327 -140 l 1
 423 -140 l 1
 423 598 l 1
 456 598 l 1
 456 694 l 1
 2 694 l 1
 2 598 l 1
EndSplineSet
Colour: ff0000
EndChar

StartChar: summation
Encoding: 411 8721 320
Width: 676
VWidth: 0
Flags: HMW
LayerCount: 2
Back
Fore
SplineSet
-2 -28 m 257
 -2 -140 l 257
 496 -140 l 257
 496 -28 l 257
 -2 -28 l 257
-2 593 m 257
 230 310 l 257
 -1 27 l 261
 -1 17 l 261
 144 17 l 261
 353 261 l 257
 353 358 l 257
 68 703 l 257
 -2 703 l 257
 -2 593 l 257
136 694 m 257
 219 591 l 257
 496 591 l 257
 496 703 l 257
 136 703 l 257
 136 694 l 257
EndSplineSet
Colour: ff0000
EndChar

StartChar: radical
Encoding: 414 8730 323
Width: 560
VWidth: 0
Flags: HMW
LayerCount: 2
Back
Fore
SplineSet
6 513 m 1
 181 575 l 1
 358.561523438 133.392578125 l 1
 488 819 l 1
 554 819 l 1
 403 -2 l 1
 316 -2 l 1
 116.557617188 494 l 1
 22 461 l 1
 6 513 l 1
EndSplineSet
Colour: ff0000
EndChar

StartChar: infinity
Encoding: 415 8734 324
Width: 798
VWidth: 0
Flags: HMW
LayerCount: 2
Back
SplineSet
432 74 m 5
 272 387 l 5
 265.302838149 395.182613519 253.956860562 399 235 399 c 261
 235 517 l 261
 305.629319592 517 355.667130538 482.504271682 377 442.422851562 c 5
 533 131 l 5
 539.50207709 121.704194687 549.863669631 118 568 118 c 261
 568 0 l 261
 500.381469942 0 457.506830165 33.2871348902 432 74 c 5
EndSplineSet
Fore
SplineSet
609 399 m 257
 609 517 l 257
 715.598054801 517 768 425.842608358 768 377 c 258
 768 142 l 258
 768 93.1497684781 716.640067573 0 609 0 c 257
 609 118 l 257
 643.124636793 118 651 138.10548922 651 153 c 258
 651 364 l 258
 651 384.591519587 642.242819853 399 609 399 c 257
30 377 m 258
 30 425.751528086 83.5188246079 517 194 517 c 257
 194 399 l 257
 158.092445634 399 150 377.836399634 150 364 c 258
 150 155 l 258
 150 132.442730763 160.636582651 118 194 118 c 257
 194 0 l 257
 82.4842183772 0 30 94.1756042126 30 142 c 258
 30 377 l 258
371 74 m 1
 345.504711548 33.3055572585 302.607468591 0 235 0 c 1
 235 118 l 1
 253.105290878 118 263.499863926 121.706969694 270 131 c 2
 335.758175928 262.27306834 l 1
 272 387 l 2
 265.302838149 395.182613519 253.956860562 399 235 399 c 1
 235 517 l 1
 305.629319592 517 355.667130538 482.504271682 377 442.422851562 c 2
 401.5 393.513493464 l 1
 426 442.422851562 l 2
 447.323406118 482.486491406 497.379187751 517 568 517 c 1
 568 399 l 1
 549.085568737 399 537.690142878 395.174037716 531 387 c 2
 467.241824072 262.27306834 l 1
 533 131 l 2
 539.50207709 121.704194687 549.863669631 118 568 118 c 1
 568 0 l 1
 500.381469942 0 457.506830165 33.2871348902 432 74 c 1
 401.5 133.665625 l 1
 371 74 l 1
EndSplineSet
EndChar

StartChar: integral
Encoding: 416 8747 325
Width: 285
VWidth: 0
Flags: MW
LayerCount: 2
Back
Fore
SplineSet
1 -140 m 1
 1 -205 l 1
 61 -205 187 -147 187 -3 c 2
 187 625 l 2
 187 744 277 754 282 754 c 1
 282 819 l 1
 222 819 98 769 98 625 c 2
 98 -3 l 1
 98 -116 6 -140 1 -140 c 1
EndSplineSet
Colour: ff0000
EndChar

StartChar: approxequal
Encoding: 417 8776 326
Width: 568
VWidth: 0
Flags: HMW
LayerCount: 2
Back
Fore
SplineSet
50 164 m 261
 50 297 l 261
 95 323 132 332 163 332 c 260
 250 332 299 259 387 259 c 260
 422 259 464 271 518 304 c 261
 518 173 l 261
 462 139 418 127 381 127 c 260
 289 127 239 200 157 200 c 260
 127 200 92 191 50 164 c 261
50 402 m 257
 50 535 l 257
 95 561 132 570 163 570 c 256
 250 570 299 497 387 497 c 256
 422 497 464 509 518 542 c 257
 518 411 l 257
 462 377 418 365 381 365 c 256
 289 365 239 438 157 438 c 256
 127 438 92 429 50 402 c 257
EndSplineSet
Colour: ff0000
EndChar

StartChar: lessequal
Encoding: 418 8804 327
Width: 414
VWidth: 0
Flags: HMW
LayerCount: 2
Back
Fore
SplineSet
30 325 m 261
 30 389 l 261
 384 567 l 261
 384 437 l 261
 208 359 l 261
 384 273 l 261
 384 146 l 261
 30 325 l 261
-16 -123 m 257
 -16 -16 l 257
 434 -16 l 257
 434 -123 l 257
 -16 -123 l 257
EndSplineSet
Colour: ff0000
EndChar

StartChar: greaterequal
Encoding: 419 8805 328
Width: 414
VWidth: 0
Flags: MW
LayerCount: 2
Back
Fore
SplineSet
-16 -123 m 261
 -16 -16 l 257
 434 -16 l 257
 434 -123 l 257
 -16 -123 l 261
30 146 m 257
 30 273 l 257
 206 359 l 257
 30 437 l 257
 30 567 l 257
 384 389 l 257
 384 325 l 257
 30 146 l 257
EndSplineSet
Colour: ff0000
EndChar

StartChar: lozenge
Encoding: 420 9674 329
Width: 414
VWidth: 0
Flags: HMW
LayerCount: 2
Back
Fore
SplineSet
-3 352 m 257
 175 706 l 257
 239 706 l 257
 418 352 l 257
 239 -2 l 257
 175 -2 l 257
 -3 352 l 257
127 352 m 257
 205 176 l 257
 291 352 l 257
 205 528 l 257
 127 352 l 257
EndSplineSet
Colour: ff0000
EndChar

StartChar: mnyk
Encoding: 421 -1 330
Width: 952
VWidth: 0
Flags: HWO
LayerCount: 2
Back
Fore
SplineSet
692.599609375 606 m 0
 692.599609375 669.200195312 743.799804688 720.400390625 807 720.400390625 c 0
 870.200195312 720.400390625 921.400390625 669.200195312 921.400390625 606 c 0
 921.400390625 542.799804688 870.200195312 491.599609375 807 491.599609375 c 0
 743.799804688 491.599609375 692.599609375 542.799804688 692.599609375 606 c 0
30.400390625 401 m 0
 30.400390625 574.799804688 171.200195312 715.599609375 345 715.599609375 c 0
 518.799804688 715.599609375 659.599609375 574.799804688 659.599609375 401 c 0
 659.599609375 227.200195312 518.799804688 86.400390625 345 86.400390625 c 0
 171.200195312 86.400390625 30.400390625 227.200195312 30.400390625 401 c 0
EndSplineSet
EndChar
